<svg xmlns="http://www.w3.org/2000/svg" xmlns:xlink="http://www.w3.org/1999/xlink" id="svg" version="1.1" viewBox="32.4 0.11 335.2 399.78"><g id="svgg"><path id="path0" d="M245.500 0.277 C 244.015 0.365,242.800 0.608,242.800 0.818 C 242.800 1.028,241.911 1.200,240.824 1.200 C 239.737 1.200,238.736 1.380,238.600 1.600 C 238.464 1.820,237.474 2.000,236.400 2.000 C 235.326 2.000,234.336 2.180,234.200 2.400 C 234.064 2.620,233.243 2.800,232.376 2.800 C 231.509 2.800,230.800 2.980,230.800 3.200 C 230.800 3.420,230.080 3.600,229.200 3.600 C 228.320 3.600,227.600 3.780,227.600 4.000 C 227.600 4.220,226.970 4.400,226.200 4.400 C 225.430 4.400,224.800 4.580,224.800 4.800 C 224.800 5.020,224.080 5.200,223.200 5.200 C 222.320 5.200,221.600 5.380,221.600 5.600 C 221.600 5.820,221.071 6.000,220.424 6.000 C 219.777 6.000,219.136 6.180,219.000 6.400 C 218.864 6.620,218.133 6.800,217.376 6.800 C 216.619 6.800,216.000 6.980,216.000 7.200 C 216.000 7.420,215.460 7.600,214.800 7.600 C 214.140 7.600,213.600 7.780,213.600 8.000 C 213.600 8.220,213.294 8.400,212.920 8.400 C 211.838 8.400,207.600 9.745,207.600 10.089 C 207.600 10.260,207.060 10.400,206.400 10.400 C 205.740 10.400,205.200 10.580,205.200 10.800 C 205.200 11.020,204.840 11.200,204.400 11.200 C 203.960 11.200,203.600 11.380,203.600 11.600 C 203.600 11.820,203.060 12.000,202.400 12.000 C 201.740 12.000,201.200 12.180,201.200 12.400 C 201.200 12.620,200.840 12.800,200.400 12.800 C 199.960 12.800,199.600 12.980,199.600 13.200 C 199.600 13.420,199.328 13.600,198.995 13.600 C 198.662 13.600,198.077 13.761,197.695 13.958 C 197.313 14.155,195.740 14.919,194.200 15.656 C 192.660 16.393,191.340 17.132,191.267 17.298 C 191.193 17.464,190.788 17.600,190.367 17.600 C 189.945 17.600,189.600 17.780,189.600 18.000 C 189.600 18.220,189.240 18.400,188.800 18.400 C 188.360 18.400,188.000 18.580,188.000 18.800 C 188.000 19.020,187.640 19.200,187.200 19.200 C 186.760 19.200,186.400 19.380,186.400 19.600 C 186.400 19.820,186.040 20.000,185.600 20.000 C 185.160 20.000,184.800 20.180,184.800 20.400 C 184.800 20.620,184.440 20.800,184.000 20.800 C 183.560 20.800,183.200 20.980,183.200 21.200 C 183.200 21.420,182.964 21.600,182.675 21.600 C 182.387 21.600,181.764 21.960,181.292 22.400 C 180.820 22.840,180.156 23.200,179.817 23.200 C 179.478 23.200,179.200 23.380,179.200 23.600 C 179.200 23.820,178.840 24.000,178.400 24.000 C 177.960 24.000,177.600 24.141,177.600 24.314 C 177.600 24.487,176.611 25.162,175.401 25.814 C 174.192 26.466,173.202 27.135,173.201 27.300 C 173.201 27.465,172.880 27.600,172.488 27.600 C 172.097 27.600,171.517 27.960,171.200 28.400 C 170.883 28.840,170.343 29.200,170.000 29.200 C 169.657 29.200,169.117 29.560,168.800 30.000 C 168.483 30.440,167.943 30.800,167.600 30.800 C 167.257 30.800,166.717 31.160,166.400 31.600 C 166.083 32.040,165.620 32.400,165.371 32.400 C 165.122 32.400,164.354 32.940,163.663 33.600 C 162.972 34.260,162.252 34.800,162.063 34.800 C 161.233 34.800,159.200 37.315,158.785 38.856 C 158.240 40.881,158.609 44.000,159.394 44.000 C 159.693 44.000,160.447 44.424,161.069 44.943 C 164.004 47.392,166.392 47.253,170.200 44.411 C 171.300 43.591,174.090 41.649,176.400 40.097 C 197.500 25.917,221.349 16.574,246.000 12.829 C 247.430 12.612,249.791 12.247,251.246 12.017 C 259.256 10.754,263.679 13.786,261.550 19.081 C 260.796 20.956,260.501 21.741,260.000 23.200 C 259.736 23.970,259.378 24.960,259.205 25.400 C 258.473 27.266,256.699 34.121,256.048 37.600 C 255.822 38.810,255.406 40.970,255.125 42.400 C 254.801 44.043,254.613 48.311,254.613 54.000 C 254.613 59.689,254.801 63.957,255.125 65.600 C 255.406 67.030,255.828 69.190,256.061 70.400 C 256.295 71.610,256.625 73.050,256.796 73.600 C 256.967 74.150,257.329 75.410,257.600 76.400 C 258.170 78.482,258.729 80.221,259.240 81.500 C 259.438 81.995,259.780 82.850,260.000 83.400 C 260.220 83.950,260.551 84.805,260.735 85.300 C 261.931 88.509,267.262 98.525,269.789 102.311 C 271.445 104.791,272.800 106.904,272.800 107.006 C 272.800 107.108,273.057 107.508,273.372 107.895 C 273.686 108.283,275.607 110.850,277.640 113.600 C 280.949 118.077,292.195 132.296,292.825 132.800 C 293.314 133.191,299.864 141.841,301.533 144.300 C 303.562 147.289,303.679 147.246,296.977 145.960 C 290.772 144.769,289.314 144.493,286.600 143.994 C 277.533 142.328,260.746 140.105,250.200 139.173 C 224.592 136.912,183.189 136.553,159.400 138.387 C 145.354 139.470,139.224 140.113,128.900 141.586 C 127.305 141.814,124.785 142.168,123.300 142.372 C 121.815 142.577,118.440 143.125,115.800 143.590 C 113.160 144.055,110.010 144.608,108.800 144.818 C 107.590 145.028,104.111 145.718,101.068 146.350 C 94.365 147.744,94.280 147.672,96.426 142.500 C 97.081 140.923,97.506 139.837,98.030 138.400 C 98.311 137.630,99.021 135.920,99.609 134.600 C 100.196 133.280,101.019 131.390,101.438 130.400 C 103.103 126.465,110.157 112.900,111.661 110.738 C 112.067 110.154,112.400 109.583,112.400 109.468 C 112.400 109.198,115.540 104.111,118.908 98.926 C 121.153 95.469,123.481 92.203,128.528 85.430 C 132.020 80.744,138.714 72.994,144.638 66.778 C 149.601 61.570,150.090 60.510,148.944 57.454 C 148.603 56.544,148.231 55.305,148.117 54.700 C 147.977 53.962,147.661 53.600,147.155 53.600 C 146.740 53.600,146.400 53.420,146.400 53.200 C 146.400 52.974,145.267 52.800,143.800 52.800 C 142.333 52.800,141.200 52.974,141.200 53.200 C 141.200 53.420,140.928 53.600,140.595 53.600 C 140.042 53.600,132.400 60.890,132.400 61.417 C 132.400 61.542,131.347 62.678,130.060 63.942 C 128.772 65.205,127.031 67.220,126.190 68.419 C 125.349 69.619,124.152 71.077,123.530 71.660 C 122.909 72.244,122.400 72.933,122.400 73.192 C 122.400 73.451,121.680 74.354,120.800 75.200 C 119.920 76.046,119.200 76.843,119.200 76.972 C 119.200 77.102,118.660 77.772,118.000 78.463 C 117.340 79.154,116.800 79.874,116.800 80.063 C 116.800 80.252,116.260 80.972,115.600 81.663 C 114.940 82.354,114.400 83.122,114.400 83.371 C 114.400 83.620,114.040 84.083,113.600 84.400 C 113.160 84.717,112.800 85.257,112.800 85.600 C 112.800 85.943,112.440 86.483,112.000 86.800 C 111.560 87.117,111.200 87.562,111.200 87.788 C 111.199 88.015,110.769 88.700,110.243 89.311 C 109.718 89.922,109.066 90.957,108.795 91.611 C 108.525 92.265,108.145 92.800,107.951 92.800 C 107.758 92.800,107.600 93.070,107.600 93.400 C 107.600 93.730,107.420 94.000,107.200 94.000 C 106.980 94.000,106.800 94.320,106.800 94.712 C 106.800 95.103,106.440 95.683,106.000 96.000 C 105.560 96.317,105.200 96.814,105.200 97.105 C 105.200 97.396,104.840 98.020,104.400 98.492 C 103.960 98.964,103.600 99.587,103.600 99.875 C 103.600 100.164,103.420 100.400,103.200 100.400 C 102.980 100.400,102.800 100.678,102.800 101.017 C 102.800 101.356,102.440 102.020,102.000 102.492 C 101.560 102.964,101.200 103.587,101.200 103.875 C 101.200 104.164,101.020 104.400,100.800 104.400 C 100.580 104.400,100.400 104.760,100.400 105.200 C 100.400 105.640,100.220 106.000,100.000 106.000 C 99.780 106.000,99.600 106.278,99.600 106.617 C 99.600 106.956,99.240 107.620,98.800 108.092 C 98.360 108.564,98.000 109.187,98.000 109.475 C 98.000 109.764,97.854 110.000,97.675 110.000 C 97.496 110.000,97.102 110.630,96.800 111.400 C 96.498 112.170,96.104 112.800,95.925 112.800 C 95.746 112.800,95.600 113.160,95.600 113.600 C 95.600 114.040,95.420 114.400,95.200 114.400 C 94.980 114.400,94.800 114.760,94.800 115.200 C 94.800 115.640,94.620 116.000,94.400 116.000 C 94.180 116.000,94.000 116.360,94.000 116.800 C 94.000 117.240,93.820 117.600,93.600 117.600 C 93.380 117.600,93.200 117.842,93.200 118.139 C 93.200 118.640,92.443 120.483,91.574 122.095 C 91.368 122.477,91.200 123.062,91.200 123.395 C 91.200 123.728,91.020 124.000,90.800 124.000 C 90.580 124.000,90.400 124.360,90.400 124.800 C 90.400 125.240,90.220 125.600,90.000 125.600 C 89.780 125.600,89.600 126.050,89.600 126.600 C 89.600 127.150,89.420 127.600,89.200 127.600 C 88.980 127.600,88.800 127.960,88.800 128.400 C 88.800 128.840,88.620 129.200,88.400 129.200 C 88.180 129.200,88.000 129.549,88.000 129.976 C 88.000 130.403,87.820 130.864,87.600 131.000 C 87.380 131.136,87.200 131.687,87.200 132.224 C 87.200 132.761,87.020 133.200,86.800 133.200 C 86.580 133.200,86.400 133.560,86.400 134.000 C 86.400 134.440,86.220 134.800,86.000 134.800 C 85.780 134.800,85.600 135.340,85.600 136.000 C 85.600 136.660,85.420 137.200,85.200 137.200 C 84.980 137.200,84.800 137.562,84.800 138.005 C 84.800 138.448,84.592 139.213,84.338 139.705 C 83.342 141.631,83.200 142.017,83.200 142.795 C 83.200 143.238,83.020 143.600,82.800 143.600 C 82.580 143.600,82.400 144.140,82.400 144.800 C 82.400 145.460,82.220 146.000,82.000 146.000 C 81.780 146.000,81.600 146.548,81.600 147.218 C 81.600 148.728,80.033 150.400,78.618 150.400 C 78.058 150.400,77.600 150.580,77.600 150.800 C 77.600 151.020,77.150 151.200,76.600 151.200 C 76.050 151.200,75.600 151.380,75.600 151.600 C 75.600 151.820,75.280 152.000,74.888 152.000 C 74.497 152.000,73.917 152.360,73.600 152.800 C 72.805 153.903,69.216 153.495,69.203 152.300 C 69.201 152.135,68.840 152.000,68.400 152.000 C 67.960 152.000,67.600 151.820,67.600 151.600 C 67.600 151.380,67.240 151.200,66.800 151.200 C 66.360 151.200,66.000 151.020,66.000 150.800 C 66.000 150.580,65.640 150.400,65.200 150.400 C 64.760 150.400,64.400 150.220,64.400 150.000 C 64.400 149.780,64.040 149.600,63.600 149.600 C 63.160 149.600,62.800 149.420,62.800 149.200 C 62.800 148.980,62.440 148.800,62.000 148.800 C 61.560 148.800,61.200 148.659,61.200 148.487 C 61.200 148.315,60.345 147.943,59.300 147.661 C 58.255 147.378,57.087 146.979,56.705 146.773 C 55.756 146.263,47.200 146.287,47.200 146.800 C 47.200 147.020,46.660 147.200,46.000 147.200 C 45.340 147.200,44.800 147.380,44.800 147.600 C 44.800 147.820,44.350 148.000,43.800 148.000 C 43.250 148.000,42.800 148.150,42.800 148.332 C 42.800 148.515,42.308 148.920,41.707 149.232 C 40.192 150.019,35.600 154.651,35.600 155.393 C 35.600 155.727,35.420 156.000,35.200 156.000 C 34.980 156.000,34.800 156.360,34.800 156.800 C 34.800 157.240,34.620 157.600,34.400 157.600 C 34.180 157.600,34.000 157.949,34.000 158.376 C 34.000 158.803,33.820 159.264,33.600 159.400 C 33.380 159.536,33.200 160.346,33.200 161.200 C 33.200 162.054,33.020 162.864,32.800 163.000 C 32.539 163.161,32.400 173.137,32.400 191.624 C 32.400 210.275,32.537 220.000,32.800 220.000 C 33.028 220.000,33.200 221.192,33.200 222.776 C 33.200 224.303,33.380 225.664,33.600 225.800 C 33.820 225.936,34.000 226.757,34.000 227.624 C 34.000 228.491,34.180 229.200,34.400 229.200 C 34.620 229.200,34.800 229.740,34.800 230.400 C 34.800 231.060,34.980 231.600,35.200 231.600 C 35.420 231.600,35.600 232.140,35.600 232.800 C 35.600 233.460,35.780 234.000,36.000 234.000 C 36.220 234.000,36.400 234.360,36.400 234.800 C 36.400 235.240,36.580 235.600,36.800 235.600 C 37.020 235.600,37.200 235.960,37.200 236.400 C 37.200 236.840,37.380 237.200,37.600 237.200 C 37.820 237.200,38.000 237.560,38.000 238.000 C 38.000 238.440,38.180 238.800,38.400 238.800 C 38.620 238.800,38.800 239.160,38.800 239.600 C 38.800 240.040,38.980 240.400,39.200 240.400 C 39.420 240.400,39.600 240.630,39.600 240.912 C 39.600 241.193,39.960 241.683,40.400 242.000 C 40.840 242.317,41.200 242.820,41.200 243.117 C 41.200 243.414,41.425 243.903,41.700 244.204 C 41.975 244.505,42.830 245.513,43.600 246.445 C 46.333 249.750,47.698 251.200,48.078 251.200 C 48.290 251.200,49.154 251.920,50.000 252.800 C 50.846 253.680,51.755 254.400,52.022 254.400 C 52.288 254.400,52.799 254.715,53.157 255.100 C 53.878 255.875,54.451 256.220,57.629 257.792 C 58.823 258.383,60.113 259.031,60.495 259.233 C 60.877 259.435,61.552 259.600,61.995 259.600 C 62.438 259.600,62.800 259.780,62.800 260.000 C 62.800 260.220,63.149 260.400,63.576 260.400 C 64.003 260.400,64.464 260.580,64.600 260.800 C 64.736 261.020,65.467 261.200,66.224 261.200 C 66.981 261.200,67.600 261.380,67.600 261.600 C 67.600 261.820,68.309 262.000,69.176 262.000 C 70.043 262.000,70.864 262.180,71.000 262.400 C 71.143 262.632,73.347 262.800,76.252 262.800 C 81.425 262.800,82.400 263.081,82.400 264.571 C 82.400 264.917,82.580 265.200,82.800 265.200 C 83.020 265.200,83.200 265.545,83.200 265.967 C 83.200 266.388,83.335 266.793,83.500 266.867 C 83.665 266.940,84.233 267.855,84.763 268.900 C 85.292 269.945,85.877 270.800,86.063 270.800 C 86.248 270.800,86.400 271.160,86.400 271.600 C 86.400 272.040,86.580 272.400,86.800 272.400 C 87.020 272.400,87.200 272.670,87.200 273.000 C 87.200 273.330,87.380 273.600,87.600 273.600 C 87.820 273.600,88.000 273.870,88.000 274.200 C 88.000 274.530,88.180 274.800,88.400 274.800 C 88.620 274.800,88.800 275.070,88.800 275.400 C 88.800 275.730,88.950 276.000,89.132 276.000 C 89.315 276.000,89.720 276.495,90.032 277.100 C 90.345 277.705,90.915 278.549,91.300 278.975 C 91.685 279.402,92.000 279.959,92.000 280.214 C 92.000 280.469,92.360 281.093,92.800 281.600 C 93.240 282.107,93.600 282.637,93.600 282.778 C 93.600 282.918,94.230 283.701,95.000 284.518 C 95.770 285.334,96.400 286.152,96.400 286.334 C 96.400 287.298,111.236 302.170,114.419 304.396 C 115.178 304.927,116.070 305.657,116.400 306.018 C 116.730 306.379,117.439 306.907,117.975 307.191 C 118.511 307.476,119.141 307.867,119.375 308.062 C 119.609 308.256,120.238 308.776,120.774 309.218 L 121.747 310.022 120.785 310.695 C 120.257 311.066,119.055 312.186,118.115 313.184 C 117.176 314.183,115.145 316.334,113.603 317.965 C 112.062 319.596,110.800 321.056,110.800 321.211 C 110.800 321.365,110.263 322.101,109.606 322.846 C 108.950 323.591,108.410 324.337,108.406 324.504 C 108.403 324.671,107.860 325.372,107.200 326.063 C 106.540 326.754,106.000 327.522,106.000 327.771 C 106.000 328.020,105.640 328.483,105.200 328.800 C 104.760 329.117,104.400 329.657,104.400 330.000 C 104.400 330.343,104.040 330.883,103.600 331.200 C 103.160 331.517,102.800 332.014,102.800 332.305 C 102.800 332.596,102.440 333.220,102.000 333.692 C 101.560 334.164,101.200 334.787,101.200 335.075 C 101.200 335.364,101.020 335.600,100.800 335.600 C 100.580 335.600,100.400 335.960,100.400 336.400 C 100.400 336.840,100.220 337.200,100.000 337.200 C 99.780 337.200,99.600 337.478,99.600 337.817 C 99.600 338.156,99.240 338.820,98.800 339.292 C 98.360 339.764,98.000 340.387,98.000 340.675 C 98.000 340.964,97.820 341.200,97.600 341.200 C 97.380 341.200,97.200 341.560,97.200 342.000 C 97.200 342.440,97.020 342.800,96.800 342.800 C 96.580 342.800,96.400 343.065,96.400 343.388 C 96.400 343.711,96.040 344.617,95.600 345.400 C 95.160 346.183,94.800 347.089,94.800 347.412 C 94.800 347.735,94.620 348.000,94.400 348.000 C 94.180 348.000,94.000 348.349,94.000 348.776 C 94.000 349.203,93.820 349.664,93.600 349.800 C 93.380 349.936,93.200 350.487,93.200 351.024 C 93.200 351.561,93.050 352.000,92.867 352.000 C 92.533 352.000,91.721 354.685,91.325 357.100 C 91.208 357.815,90.952 358.400,90.756 358.400 C 90.560 358.400,90.400 358.839,90.400 359.376 C 90.400 359.913,90.220 360.464,90.000 360.600 C 89.780 360.736,89.600 361.366,89.600 362.000 C 89.600 362.634,89.420 363.264,89.200 363.400 C 88.980 363.536,88.800 364.267,88.800 365.024 C 88.800 365.781,88.620 366.400,88.400 366.400 C 88.149 366.400,88.000 368.933,88.000 373.200 C 88.000 377.467,88.149 380.000,88.400 380.000 C 88.620 380.000,88.800 380.540,88.800 381.200 C 88.800 381.860,88.980 382.400,89.200 382.400 C 89.420 382.400,89.600 382.940,89.600 383.600 C 89.600 384.260,89.780 384.800,90.000 384.800 C 90.220 384.800,90.400 385.160,90.400 385.600 C 90.400 386.040,90.580 386.400,90.800 386.400 C 91.020 386.400,91.200 386.760,91.200 387.200 C 91.200 387.640,91.368 388.000,91.573 388.000 C 91.778 388.000,92.064 388.373,92.209 388.828 C 92.544 389.885,98.183 395.600,98.891 395.600 C 99.184 395.600,99.683 395.960,100.000 396.400 C 100.317 396.840,100.897 397.200,101.288 397.200 C 101.680 397.200,102.000 397.380,102.000 397.600 C 102.000 397.820,102.360 398.000,102.800 398.000 C 103.240 398.000,103.600 398.180,103.600 398.400 C 103.600 398.620,104.014 398.800,104.520 398.800 C 105.026 398.800,105.665 399.025,105.940 399.300 C 106.825 400.185,270.041 400.016,270.929 399.129 C 271.298 398.759,271.600 398.174,271.600 397.829 C 271.600 397.483,271.780 397.200,272.000 397.200 C 272.475 397.200,272.539 395.126,272.082 394.580 C 271.907 394.371,271.524 393.480,271.231 392.600 C 270.547 390.544,270.179 390.107,268.343 389.171 C 266.866 388.418,265.067 388.400,189.676 388.400 C 135.330 388.400,112.117 388.272,111.160 387.966 C 105.956 386.306,102.734 383.151,100.451 377.481 C 99.903 376.122,99.856 370.725,100.377 369.028 C 102.470 362.212,104.239 356.977,105.244 354.630 C 106.807 350.983,110.679 343.309,111.649 341.938 C 112.062 341.354,112.400 340.707,112.400 340.500 C 112.400 340.293,112.760 339.798,113.200 339.400 C 113.640 339.002,114.000 338.509,114.000 338.305 C 114.000 337.862,116.823 333.945,120.379 329.456 C 124.113 324.740,132.581 316.400,133.634 316.400 C 134.598 316.400,134.624 316.017,133.227 322.346 C 131.314 331.018,131.030 334.082,131.015 346.200 C 130.999 358.543,131.150 359.833,133.063 363.685 C 135.580 368.757,140.947 372.010,146.773 371.994 C 151.286 371.982,165.853 365.977,172.020 361.586 C 172.627 361.154,173.244 360.800,173.391 360.800 C 174.184 360.800,183.257 354.078,188.200 349.828 C 191.354 347.116,199.200 339.187,199.200 338.711 C 199.200 337.902,200.812 338.539,201.703 339.700 C 205.251 344.320,214.505 352.524,222.613 358.237 C 230.343 363.684,244.702 370.544,250.691 371.651 C 256.559 372.735,262.641 370.137,266.268 364.996 C 270.209 359.411,270.264 336.840,266.376 320.400 C 265.428 316.388,265.428 316.400,266.440 316.400 C 267.635 316.400,276.623 325.433,280.768 330.800 C 283.811 334.740,287.600 340.181,287.600 340.610 C 287.600 340.745,288.106 341.608,288.724 342.528 C 291.943 347.316,296.528 358.056,298.977 366.545 C 301.515 375.339,299.411 381.962,292.691 386.341 C 287.583 389.668,286.934 398.000,291.782 398.000 C 292.342 398.000,292.800 398.180,292.800 398.400 C 292.800 398.620,293.430 398.800,294.200 398.800 C 294.970 398.800,295.600 398.620,295.600 398.400 C 295.600 398.180,296.140 398.000,296.800 398.000 C 297.460 398.000,298.000 397.820,298.000 397.600 C 298.000 397.380,298.320 397.200,298.712 397.200 C 299.103 397.200,299.683 396.840,300.000 396.400 C 300.317 395.960,300.802 395.600,301.078 395.600 C 302.241 395.600,308.800 388.317,308.800 387.027 C 308.800 386.682,308.980 386.400,309.200 386.400 C 309.420 386.400,309.600 386.040,309.600 385.600 C 309.600 385.160,309.780 384.800,310.000 384.800 C 310.220 384.800,310.400 384.361,310.400 383.824 C 310.400 383.287,310.580 382.736,310.800 382.600 C 311.020 382.464,311.200 381.823,311.200 381.176 C 311.200 380.529,311.380 380.000,311.600 380.000 C 311.851 380.000,312.000 377.467,312.000 373.200 C 312.000 368.933,311.851 366.400,311.600 366.400 C 311.380 366.400,311.200 365.770,311.200 365.000 C 311.200 364.230,311.020 363.600,310.800 363.600 C 310.580 363.600,310.400 362.981,310.400 362.224 C 310.400 361.467,310.220 360.736,310.000 360.600 C 309.780 360.464,309.600 359.913,309.600 359.376 C 309.600 358.839,309.420 358.400,309.200 358.400 C 308.980 358.400,308.800 358.004,308.800 357.520 C 308.800 356.287,307.488 352.000,307.111 352.000 C 306.940 352.000,306.800 351.561,306.800 351.024 C 306.800 350.487,306.620 349.936,306.400 349.800 C 306.180 349.664,306.000 349.203,306.000 348.776 C 306.000 348.349,305.820 348.000,305.600 348.000 C 305.380 348.000,305.200 347.735,305.200 347.412 C 305.200 347.089,304.840 346.183,304.400 345.400 C 303.960 344.617,303.600 343.711,303.600 343.388 C 303.600 343.065,303.420 342.800,303.200 342.800 C 302.980 342.800,302.800 342.440,302.800 342.000 C 302.800 341.560,302.620 341.200,302.400 341.200 C 302.180 341.200,302.000 340.964,302.000 340.675 C 302.000 340.387,301.640 339.764,301.200 339.292 C 300.760 338.820,300.400 338.156,300.400 337.817 C 300.400 337.478,300.220 337.200,300.000 337.200 C 299.780 337.200,299.600 336.840,299.600 336.400 C 299.600 335.960,299.420 335.600,299.200 335.600 C 298.980 335.600,298.800 335.364,298.800 335.075 C 298.800 334.787,298.440 334.164,298.000 333.692 C 297.560 333.220,297.200 332.596,297.200 332.305 C 297.200 332.014,296.840 331.517,296.400 331.200 C 295.960 330.883,295.600 330.343,295.600 330.000 C 295.600 329.657,295.240 329.117,294.800 328.800 C 294.360 328.483,294.000 328.020,294.000 327.771 C 294.000 327.522,293.460 326.754,292.800 326.063 C 292.140 325.372,291.600 324.634,291.600 324.422 C 291.600 324.210,291.181 323.617,290.668 323.105 C 290.156 322.592,289.542 321.825,289.304 321.400 C 288.519 319.998,280.749 311.770,279.155 310.653 L 278.253 310.022 279.226 309.218 C 279.762 308.776,280.391 308.256,280.625 308.062 C 280.859 307.867,281.489 307.476,282.025 307.191 C 282.561 306.907,283.270 306.379,283.600 306.018 C 283.930 305.657,284.822 304.927,285.581 304.396 C 288.764 302.170,303.600 287.298,303.600 286.334 C 303.600 286.152,304.230 285.334,305.000 284.518 C 305.770 283.701,306.400 282.919,306.400 282.779 C 306.400 282.639,306.850 282.001,307.400 281.362 C 307.949 280.723,308.399 279.988,308.400 279.729 C 308.400 279.469,308.625 279.019,308.900 278.729 C 309.175 278.438,309.655 277.705,309.968 277.100 C 310.280 276.495,310.685 276.000,310.868 276.000 C 311.050 276.000,311.200 275.730,311.200 275.400 C 311.200 275.070,311.380 274.800,311.600 274.800 C 311.820 274.800,312.000 274.530,312.000 274.200 C 312.000 273.870,312.180 273.600,312.400 273.600 C 312.620 273.600,312.800 273.330,312.800 273.000 C 312.800 272.670,312.980 272.400,313.200 272.400 C 313.420 272.400,313.600 272.040,313.600 271.600 C 313.600 271.160,313.780 270.800,314.000 270.800 C 314.220 270.800,314.400 270.530,314.400 270.200 C 314.400 269.870,314.580 269.600,314.800 269.600 C 315.020 269.600,315.200 269.330,315.200 269.000 C 315.200 268.670,315.380 268.400,315.600 268.400 C 315.820 268.400,316.000 268.040,316.000 267.600 C 316.000 267.160,316.180 266.800,316.400 266.800 C 316.620 266.800,316.800 266.440,316.800 266.000 C 316.800 265.560,316.980 265.200,317.200 265.200 C 317.420 265.200,317.600 264.917,317.600 264.571 C 317.600 263.081,318.575 262.800,323.748 262.800 C 326.653 262.800,328.857 262.632,329.000 262.400 C 329.136 262.180,329.957 262.000,330.824 262.000 C 331.691 262.000,332.400 261.820,332.400 261.600 C 332.400 261.380,333.019 261.200,333.776 261.200 C 334.533 261.200,335.264 261.020,335.400 260.800 C 335.536 260.580,335.997 260.400,336.424 260.400 C 336.851 260.400,337.200 260.220,337.200 260.000 C 337.200 259.780,337.562 259.600,338.005 259.600 C 338.448 259.600,339.123 259.435,339.505 259.233 C 339.887 259.031,341.177 258.383,342.371 257.792 C 345.549 256.220,346.122 255.875,346.843 255.100 C 347.201 254.715,347.712 254.400,347.978 254.400 C 348.245 254.400,349.154 253.680,350.000 252.800 C 350.846 251.920,351.715 251.200,351.933 251.200 C 352.151 251.200,353.110 250.280,354.064 249.155 C 355.019 248.031,356.475 246.366,357.300 245.455 C 358.125 244.545,358.800 243.551,358.800 243.247 C 358.800 242.943,359.129 242.403,359.530 242.047 C 359.932 241.691,360.516 240.815,360.828 240.100 C 361.140 239.385,361.531 238.800,361.698 238.800 C 361.864 238.800,362.000 238.440,362.000 238.000 C 362.000 237.560,362.180 237.200,362.400 237.200 C 362.620 237.200,362.800 236.840,362.800 236.400 C 362.800 235.960,362.980 235.600,363.200 235.600 C 363.420 235.600,363.600 235.240,363.600 234.800 C 363.600 234.360,363.780 234.000,364.000 234.000 C 364.220 234.000,364.400 233.460,364.400 232.800 C 364.400 232.140,364.580 231.600,364.800 231.600 C 365.020 231.600,365.200 231.060,365.200 230.400 C 365.200 229.740,365.380 229.200,365.600 229.200 C 365.820 229.200,366.000 228.491,366.000 227.624 C 366.000 226.757,366.180 225.936,366.400 225.800 C 366.620 225.664,366.800 224.314,366.800 222.800 C 366.800 221.286,366.980 219.936,367.200 219.800 C 367.461 219.639,367.600 209.737,367.600 191.400 C 367.600 173.063,367.461 163.161,367.200 163.000 C 366.980 162.864,366.800 162.054,366.800 161.200 C 366.800 160.346,366.620 159.536,366.400 159.400 C 366.180 159.264,366.000 158.803,366.000 158.376 C 366.000 157.949,365.820 157.600,365.600 157.600 C 365.380 157.600,365.200 157.240,365.200 156.800 C 365.200 156.360,365.020 156.000,364.800 156.000 C 364.580 156.000,364.400 155.727,364.400 155.393 C 364.400 154.721,359.456 149.600,358.807 149.600 C 358.583 149.600,358.400 149.420,358.400 149.200 C 358.400 148.980,358.130 148.800,357.800 148.800 C 357.470 148.800,357.200 148.620,357.200 148.400 C 357.200 148.180,356.750 148.000,356.200 148.000 C 355.650 148.000,355.200 147.820,355.200 147.600 C 355.200 147.380,354.660 147.200,354.000 147.200 C 353.340 147.200,352.800 147.020,352.800 146.800 C 352.800 146.287,344.244 146.263,343.295 146.773 C 342.913 146.979,341.745 147.378,340.700 147.661 C 339.655 147.943,338.800 148.315,338.800 148.487 C 338.800 148.659,338.440 148.800,338.000 148.800 C 337.560 148.800,337.200 148.980,337.200 149.200 C 337.200 149.420,336.840 149.600,336.400 149.600 C 335.960 149.600,335.600 149.780,335.600 150.000 C 335.600 150.220,335.240 150.400,334.800 150.400 C 334.360 150.400,334.000 150.580,334.000 150.800 C 334.000 151.020,333.640 151.200,333.200 151.200 C 332.760 151.200,332.400 151.380,332.400 151.600 C 332.400 151.820,332.040 152.000,331.600 152.000 C 331.160 152.000,330.799 152.135,330.797 152.300 C 330.784 153.495,327.195 153.903,326.400 152.800 C 326.083 152.360,325.503 152.000,325.112 152.000 C 324.720 152.000,324.400 151.820,324.400 151.600 C 324.400 151.380,323.950 151.200,323.400 151.200 C 322.850 151.200,322.400 151.020,322.400 150.800 C 322.400 150.580,321.942 150.400,321.382 150.400 C 320.259 150.400,318.400 148.790,318.400 147.818 C 318.400 147.478,318.220 147.200,318.000 147.200 C 317.780 147.200,317.600 146.840,317.600 146.400 C 317.600 145.960,317.464 145.600,317.298 145.600 C 317.131 145.600,316.740 145.015,316.428 144.300 C 316.116 143.585,315.532 142.709,315.130 142.353 C 314.729 141.997,314.400 141.452,314.400 141.141 C 314.400 140.831,314.040 140.317,313.600 140.000 C 313.160 139.683,312.800 139.143,312.800 138.800 C 312.800 138.457,312.440 137.917,312.000 137.600 C 311.560 137.283,311.200 136.775,311.200 136.472 C 311.200 136.169,310.660 135.417,310.000 134.800 C 309.340 134.183,308.800 133.413,308.800 133.088 C 308.800 132.764,308.506 132.254,308.146 131.955 C 307.786 131.656,307.074 130.750,306.563 129.942 C 306.053 129.133,305.177 128.014,304.618 127.454 C 304.058 126.894,303.600 126.338,303.600 126.219 C 303.600 126.099,302.880 125.259,302.000 124.352 C 301.120 123.445,300.400 122.531,300.400 122.320 C 300.400 122.110,299.680 121.246,298.800 120.400 C 297.920 119.554,297.200 118.654,297.200 118.400 C 297.200 118.146,296.480 117.246,295.600 116.400 C 294.720 115.554,294.000 114.669,294.000 114.431 C 294.000 114.194,293.820 114.000,293.600 114.000 C 293.380 114.000,293.200 113.796,293.200 113.547 C 293.200 113.298,292.883 112.803,292.496 112.447 C 292.108 112.091,291.259 111.080,290.608 110.200 C 289.957 109.320,289.104 108.251,288.712 107.825 C 288.320 107.398,288.000 106.885,288.000 106.685 C 288.000 106.485,287.460 105.817,286.800 105.200 C 286.140 104.583,285.600 103.831,285.600 103.528 C 285.600 103.225,285.240 102.717,284.800 102.400 C 284.360 102.083,284.000 101.638,283.999 101.412 C 283.999 101.185,283.459 100.370,282.800 99.600 C 282.141 98.830,281.601 98.057,281.601 97.883 C 281.600 97.709,281.240 97.180,280.800 96.708 C 280.360 96.236,280.000 95.613,280.000 95.325 C 280.000 95.036,279.820 94.800,279.600 94.800 C 279.380 94.800,279.200 94.530,279.200 94.200 C 279.200 93.870,279.020 93.600,278.800 93.600 C 278.580 93.600,278.400 93.330,278.400 93.000 C 278.400 92.670,278.220 92.400,278.000 92.400 C 277.780 92.400,277.600 92.130,277.600 91.800 C 277.600 91.470,277.420 91.200,277.200 91.200 C 276.980 91.200,276.800 90.840,276.800 90.400 C 276.800 89.960,276.620 89.600,276.400 89.600 C 276.180 89.600,276.000 89.240,276.000 88.800 C 276.000 88.360,275.834 88.000,275.632 88.000 C 275.429 88.000,275.145 87.460,275.000 86.800 C 274.855 86.140,274.571 85.600,274.368 85.600 C 274.166 85.600,274.000 85.319,274.000 84.975 C 274.000 84.631,273.442 83.146,272.761 81.675 C 272.079 80.204,271.359 78.595,271.161 78.100 C 269.809 74.728,269.200 72.733,269.200 71.672 C 269.200 71.192,269.020 70.800,268.800 70.800 C 268.580 70.800,268.400 70.080,268.400 69.200 C 268.400 68.320,268.220 67.600,268.000 67.600 C 267.780 67.600,267.600 66.646,267.600 65.480 C 267.600 64.314,267.413 63.173,267.184 62.944 C 266.374 62.134,267.160 41.132,268.035 40.220 C 268.236 40.011,268.400 39.257,268.400 38.544 C 268.400 37.831,268.580 37.136,268.800 37.000 C 269.020 36.864,269.200 36.133,269.200 35.376 C 269.200 34.619,269.380 34.000,269.600 34.000 C 269.820 34.000,270.000 33.548,270.000 32.995 C 270.000 32.442,270.158 31.677,270.351 31.295 C 270.544 30.913,270.916 29.880,271.177 29.000 C 271.662 27.369,272.214 25.949,272.847 24.705 C 273.041 24.323,273.200 23.659,273.200 23.229 C 273.200 22.799,273.380 22.336,273.600 22.200 C 275.545 20.998,273.384 8.997,270.731 6.268 C 270.219 5.741,269.535 4.926,269.212 4.455 C 268.888 3.985,268.481 3.600,268.308 3.600 C 268.135 3.600,267.428 3.060,266.737 2.400 C 266.046 1.740,265.253 1.200,264.974 1.200 C 264.695 1.200,264.392 0.975,264.300 0.700 C 264.130 0.191,251.684 -0.090,245.500 0.277 M233.200 149.155 C 244.448 149.901,250.555 150.374,254.000 150.765 C 255.870 150.978,259.200 151.354,261.400 151.602 C 268.890 152.443,282.809 154.580,290.200 156.022 C 292.400 156.452,295.190 156.996,296.400 157.231 C 297.610 157.467,299.230 157.818,300.000 158.011 C 300.770 158.204,301.940 158.470,302.600 158.603 C 304.115 158.906,306.536 159.445,308.600 159.939 C 310.368 160.361,313.442 161.070,315.600 161.552 C 326.748 164.041,329.026 178.587,319.064 183.669 C 315.943 185.262,313.363 185.144,304.200 182.991 C 301.780 182.422,297.280 181.419,294.200 180.761 C 288.820 179.612,287.796 179.415,282.000 178.416 C 280.570 178.170,278.410 177.796,277.200 177.585 C 267.586 175.911,261.109 175.081,246.000 173.588 C 223.676 171.382,175.924 171.382,153.600 173.588 C 144.684 174.469,141.697 174.796,138.800 175.204 C 137.150 175.437,134.540 175.793,133.000 175.995 C 128.847 176.541,123.334 177.406,118.000 178.349 C 114.775 178.919,98.781 182.250,94.600 183.222 C 88.417 184.659,87.843 184.765,86.146 184.783 C 75.975 184.890,70.791 172.035,78.167 165.000 C 80.345 162.923,82.153 162.052,86.000 161.225 C 88.625 160.661,94.440 159.306,96.400 158.802 C 97.170 158.604,98.430 158.343,99.200 158.224 C 99.970 158.104,101.320 157.845,102.200 157.649 C 121.476 153.341,144.584 150.419,169.000 149.201 C 173.620 148.970,177.670 148.709,178.000 148.621 C 179.221 148.294,227.217 148.759,233.200 149.155 M53.905 158.760 C 54.287 158.958,56.895 160.244,59.700 161.616 C 62.505 162.988,64.800 164.319,64.800 164.572 C 64.800 164.825,64.530 166.069,64.200 167.335 C 62.110 175.360,65.206 185.685,71.079 190.276 C 71.696 190.758,72.783 191.658,73.495 192.276 L 74.790 193.400 74.394 195.800 C 74.176 197.120,73.778 199.550,73.509 201.200 C 72.869 205.123,72.864 226.701,73.501 230.800 C 73.758 232.450,74.155 234.790,74.385 236.000 C 74.614 237.210,74.915 238.969,75.054 239.909 C 75.193 240.849,75.462 241.715,75.653 241.833 C 75.844 241.951,76.000 242.478,76.000 243.005 C 76.000 243.531,76.162 244.376,76.360 244.881 C 76.865 246.169,78.000 250.020,78.000 250.446 C 78.000 252.874,63.382 247.873,58.680 243.836 C 58.145 243.376,57.138 242.565,56.444 242.033 C 52.810 239.250,48.000 231.718,46.461 226.400 C 46.238 225.630,45.835 224.280,45.565 223.400 C 45.017 221.613,44.512 169.841,44.998 165.285 C 45.474 160.834,50.626 157.059,53.905 158.760 M349.800 158.800 C 349.936 159.020,350.381 159.200,350.790 159.200 C 352.200 159.200,354.720 162.622,355.007 164.928 C 355.462 168.580,354.995 222.064,354.497 223.400 C 354.251 224.060,353.827 225.410,353.555 226.400 C 352.237 231.194,347.404 238.862,343.915 241.694 C 343.030 242.412,342.102 243.190,341.853 243.422 C 337.959 247.049,328.667 250.800,323.575 250.800 C 321.831 250.800,321.819 250.779,322.433 248.797 C 322.671 248.029,323.031 246.815,323.233 246.100 C 323.435 245.385,323.794 244.125,324.030 243.300 C 324.758 240.761,325.699 236.142,326.412 231.600 C 327.108 227.167,327.464 216.425,327.136 209.763 C 326.837 203.685,326.563 201.156,325.627 195.800 L 325.208 193.400 326.904 192.017 C 334.960 185.450,338.293 176.169,335.817 167.200 C 335.483 165.990,335.207 164.811,335.205 164.580 C 335.202 164.350,337.495 163.025,340.300 161.636 C 343.105 160.248,345.670 158.962,346.000 158.779 C 346.851 158.308,349.505 158.323,349.800 158.800 M223.200 183.200 C 232.556 183.631,239.104 184.091,249.000 185.011 C 255.577 185.623,258.189 185.938,265.800 187.038 C 268.220 187.387,271.280 187.826,272.600 188.013 C 273.920 188.200,276.080 188.554,277.400 188.798 C 278.720 189.043,280.790 189.421,282.000 189.637 C 284.232 190.037,286.191 190.425,289.800 191.183 C 290.900 191.414,292.520 191.707,293.400 191.832 C 294.280 191.958,295.360 192.215,295.800 192.403 C 296.240 192.592,297.140 192.840,297.800 192.955 C 299.279 193.213,302.012 193.811,304.400 194.400 C 308.377 195.380,309.892 195.677,311.906 195.872 C 314.484 196.120,314.513 196.170,315.460 201.800 C 317.599 214.517,316.013 233.132,311.679 246.200 C 307.452 258.944,301.153 269.894,291.203 281.800 C 281.432 293.491,263.243 306.435,248.200 312.401 C 247.760 312.576,246.770 312.993,246.000 313.329 C 240.834 315.582,230.698 318.380,221.900 319.982 C 202.288 323.553,179.351 321.906,160.200 315.552 C 156.450 314.307,156.206 314.214,153.104 312.840 C 152.062 312.378,151.046 312.000,150.848 312.000 C 150.289 312.000,139.342 306.436,136.414 304.664 C 132.091 302.047,124.380 296.674,122.555 295.007 C 122.310 294.783,120.960 293.615,119.555 292.411 C 115.399 288.850,109.272 282.523,106.388 278.814 C 105.625 277.832,104.672 276.662,104.271 276.214 C 103.193 275.012,97.629 266.527,96.327 264.100 C 95.707 262.945,94.660 260.992,94.000 259.759 C 93.340 258.527,92.800 257.267,92.800 256.959 C 92.800 256.652,92.620 256.400,92.400 256.400 C 92.180 256.400,92.000 256.076,92.000 255.680 C 92.000 255.284,91.847 254.789,91.660 254.580 C 90.856 253.683,88.215 246.249,86.766 240.800 C 83.862 229.887,82.799 215.318,84.184 205.400 C 84.491 203.200,84.870 200.500,85.027 199.400 C 85.454 196.394,85.708 196.102,88.094 195.872 C 89.252 195.760,91.055 195.473,92.100 195.234 C 93.145 194.995,94.765 194.630,95.700 194.422 C 96.635 194.214,98.210 193.844,99.200 193.600 C 101.553 193.020,103.693 192.539,106.400 191.982 C 107.610 191.733,109.410 191.357,110.400 191.147 C 111.390 190.936,112.740 190.675,113.400 190.566 C 114.060 190.457,115.230 190.207,116.000 190.012 C 116.770 189.816,118.750 189.448,120.400 189.194 C 122.050 188.940,124.210 188.580,125.200 188.395 C 126.966 188.065,128.550 187.828,137.400 186.564 C 159.036 183.474,196.900 181.990,223.200 183.200 M136.908 201.771 C 134.309 202.945,134.003 204.080,134.001 212.553 C 134.000 219.527,134.064 220.210,134.840 221.464 C 136.853 224.722,142.277 224.619,144.060 221.288 C 144.818 219.872,144.831 205.344,144.075 203.961 C 142.837 201.694,139.403 200.645,136.908 201.771 M258.162 201.990 C 255.560 203.312,255.400 203.912,255.400 212.361 C 255.400 221.706,256.423 224.000,260.589 224.000 C 265.079 224.000,266.400 221.401,266.400 212.565 C 266.400 202.619,263.713 199.169,258.162 201.990 M180.573 213.776 C 174.323 218.704,183.594 228.481,196.400 230.467 C 199.212 230.903,206.257 230.556,206.623 229.963 C 206.746 229.763,207.228 229.600,207.694 229.600 C 211.028 229.600,220.117 222.883,221.192 219.623 C 223.188 213.576,216.330 210.454,211.168 215.060 C 204.146 221.326,195.827 221.301,188.758 214.994 C 185.786 212.342,182.931 211.917,180.573 213.776 M146.305 321.953 C 146.687 322.148,147.450 322.484,148.000 322.700 C 149.754 323.389,151.379 324.083,152.095 324.447 C 152.477 324.641,153.116 324.800,153.515 324.800 C 153.914 324.800,154.411 324.949,154.620 325.130 C 154.829 325.312,155.810 325.693,156.800 325.976 C 157.790 326.259,158.960 326.626,159.400 326.790 C 161.392 327.534,163.125 328.000,163.905 328.000 C 164.371 328.000,164.849 328.156,164.967 328.346 C 165.084 328.536,165.860 328.803,166.690 328.938 C 167.521 329.073,169.010 329.378,170.000 329.617 C 173.624 330.489,178.276 331.239,184.600 331.969 C 187.908 332.351,189.200 332.686,189.200 333.161 C 189.200 333.540,181.637 341.031,180.400 341.877 C 179.850 342.253,178.680 343.243,177.800 344.076 C 176.920 344.910,176.067 345.593,175.905 345.596 C 175.742 345.598,175.292 345.864,174.905 346.186 C 173.104 347.684,166.208 352.400,165.818 352.400 C 165.733 352.400,164.105 353.300,162.200 354.400 C 160.295 355.500,158.666 356.400,158.578 356.400 C 158.491 356.400,157.241 356.940,155.800 357.600 C 154.359 358.260,153.002 358.800,152.785 358.800 C 152.567 358.800,152.077 358.959,151.695 359.153 C 149.450 360.295,148.593 360.545,146.827 360.571 C 144.206 360.610,143.068 359.552,142.420 356.477 C 141.841 353.734,142.099 336.498,142.783 332.200 C 143.028 330.660,143.328 328.500,143.451 327.400 C 143.573 326.300,143.837 325.229,144.037 325.020 C 144.237 324.811,144.400 324.061,144.400 323.353 C 144.400 322.274,144.648 321.889,145.505 321.632 C 145.563 321.614,145.923 321.759,146.305 321.953 M255.045 321.906 C 255.289 322.068,255.612 322.830,255.763 323.600 C 257.453 332.262,257.662 334.394,257.858 344.995 C 258.067 356.269,257.857 358.044,256.123 359.672 C 255.037 360.692,252.044 360.925,250.306 360.124 C 249.808 359.895,248.950 359.527,248.400 359.307 C 246.000 358.347,245.225 358.010,242.200 356.609 C 237.495 354.429,226.118 347.509,224.800 346.025 C 224.690 345.901,223.790 345.172,222.800 344.406 C 221.810 343.639,220.650 342.739,220.223 342.406 C 218.764 341.269,210.800 333.469,210.800 333.177 C 210.800 332.677,212.085 332.342,215.400 331.980 C 220.839 331.385,226.280 330.511,229.800 329.666 C 230.680 329.455,232.030 329.159,232.800 329.007 C 233.570 328.856,234.650 328.589,235.200 328.413 C 235.750 328.237,237.010 327.868,238.000 327.593 C 241.023 326.753,244.562 325.583,245.295 325.181 C 245.677 324.971,246.264 324.800,246.600 324.800 C 246.936 324.800,247.523 324.641,247.905 324.447 C 248.287 324.252,249.050 323.910,249.600 323.687 C 250.150 323.463,251.410 322.911,252.400 322.460 C 254.477 321.514,254.457 321.518,255.045 321.906 " stroke="none" fill="#050504" fill-rule="evenodd"/><path id="path1" d="M251.600 12.451 C 243.424 13.559,230.072 16.233,226.000 17.577 C 225.450 17.759,224.190 18.135,223.200 18.414 C 219.029 19.588,211.751 22.115,211.332 22.535 C 211.186 22.681,210.825 22.800,210.529 22.800 C 210.233 22.800,209.228 23.143,208.296 23.562 C 207.363 23.980,205.794 24.655,204.809 25.062 C 200.553 26.816,190.223 32.103,185.800 34.790 C 183.160 36.393,180.640 37.907,180.200 38.154 C 178.920 38.870,174.619 41.747,174.400 42.034 C 174.290 42.177,172.515 43.398,170.456 44.747 C 165.678 47.878,163.470 47.927,160.514 44.971 C 159.777 44.234,158.836 44.241,158.550 44.985 C 158.427 45.306,157.971 45.682,157.536 45.820 C 157.102 45.958,155.772 47.045,154.582 48.235 C 153.391 49.426,152.299 50.400,152.155 50.400 C 152.010 50.400,151.511 50.805,151.046 51.301 C 150.581 51.797,149.695 52.596,149.077 53.077 L 147.954 53.952 148.977 56.114 C 151.144 60.696,150.944 61.070,140.596 71.757 C 138.826 73.585,131.784 82.055,128.589 86.200 C 127.062 88.180,125.585 90.038,125.306 90.329 C 125.028 90.619,124.800 91.011,124.800 91.200 C 124.800 91.389,124.534 91.809,124.209 92.134 C 123.884 92.459,121.578 95.847,119.086 99.662 C 114.903 106.064,114.051 107.429,111.946 111.100 C 111.536 111.815,110.810 113.075,110.333 113.900 C 109.569 115.223,107.407 119.316,104.894 124.200 C 101.982 129.859,95.600 145.201,95.600 146.542 C 95.600 146.942,97.897 146.582,104.200 145.197 C 106.259 144.745,108.424 144.336,112.600 143.613 C 113.920 143.384,115.990 143.016,117.200 142.796 C 118.410 142.576,120.660 142.225,122.200 142.016 C 123.740 141.808,126.260 141.440,127.800 141.200 C 136.030 139.916,144.715 138.999,160.200 137.779 C 172.934 136.776,214.774 136.534,230.650 137.371 C 250.234 138.405,267.060 140.171,282.200 142.784 C 283.520 143.012,285.680 143.378,287.000 143.597 C 288.320 143.817,290.210 144.161,291.200 144.361 C 298.576 145.856,301.711 146.379,301.959 146.158 C 302.237 145.909,298.552 140.687,294.515 135.610 C 293.880 134.812,286.114 125.236,285.260 124.199 C 284.897 123.758,283.975 122.588,283.210 121.599 C 282.446 120.609,281.726 119.710,281.609 119.600 C 281.493 119.490,280.588 118.324,279.599 117.009 C 278.610 115.694,277.587 114.344,277.326 114.009 C 271.175 106.102,264.262 94.682,261.038 87.100 C 260.687 86.275,260.140 85.015,259.822 84.300 C 255.044 73.549,252.611 53.327,254.710 41.800 C 255.454 37.714,256.798 31.554,257.199 30.400 C 257.389 29.850,257.948 28.050,258.439 26.400 C 258.930 24.750,259.449 23.220,259.592 23.000 C 260.987 20.849,261.707 16.768,260.977 15.150 C 259.622 12.144,257.779 11.614,251.600 12.451 M354.589 191.200 C 354.589 205.830,354.639 211.815,354.700 204.500 C 354.761 197.185,354.761 185.215,354.700 177.900 C 354.639 170.585,354.589 176.570,354.589 191.200 M189.900 183.489 C 190.615 183.578,191.785 183.578,192.500 183.489 C 193.215 183.401,192.630 183.328,191.200 183.328 C 189.770 183.328,189.185 183.401,189.900 183.489 M207.500 183.489 C 208.215 183.578,209.385 183.578,210.100 183.489 C 210.815 183.401,210.230 183.328,208.800 183.328 C 207.370 183.328,206.785 183.401,207.500 183.489 M69.200 189.325 C 69.200 189.394,69.785 189.979,70.500 190.625 L 71.800 191.800 70.625 190.500 C 69.530 189.288,69.200 189.016,69.200 189.325 M133.363 212.400 C 133.363 216.030,133.423 217.515,133.498 215.700 C 133.572 213.885,133.572 210.915,133.498 209.100 C 133.423 207.285,133.363 208.770,133.363 212.400 M145.363 212.800 C 145.363 216.430,145.423 217.915,145.498 216.100 C 145.572 214.285,145.572 211.315,145.498 209.500 C 145.423 207.685,145.363 209.170,145.363 212.800 M328.146 216.200 C 328.147 218.400,328.214 219.249,328.295 218.087 C 328.376 216.924,328.376 215.124,328.293 214.087 C 328.211 213.049,328.145 214.000,328.146 216.200 M55.400 240.400 C 56.259 241.280,57.052 242.000,57.162 242.000 C 57.272 242.000,56.659 241.280,55.800 240.400 C 54.941 239.520,54.148 238.800,54.038 238.800 C 53.928 238.800,54.541 239.520,55.400 240.400 M127.578 322.299 C 117.082 332.950,108.202 346.862,104.027 359.200 C 103.543 360.630,102.997 362.160,102.813 362.600 C 98.717 372.397,100.392 381.231,107.170 385.581 C 111.159 388.140,105.990 387.990,190.174 387.995 C 265.850 388.000,266.971 388.011,268.582 388.792 C 270.304 389.625,271.562 391.321,271.981 393.372 L 272.232 394.600 280.106 394.708 L 287.981 394.817 288.138 393.908 C 288.225 393.409,288.313 392.409,288.333 391.686 C 288.388 389.713,289.206 388.365,291.166 387.016 C 299.210 381.478,301.136 376.024,298.445 366.400 C 298.230 365.630,297.937 364.550,297.794 364.000 C 297.650 363.450,297.386 362.640,297.207 362.200 C 297.028 361.760,296.664 360.770,296.400 360.000 C 293.466 351.457,287.043 339.399,282.123 333.201 C 277.686 327.611,275.741 325.405,271.776 321.470 C 267.471 317.196,265.529 315.797,266.150 317.414 C 268.654 323.941,270.420 346.886,269.196 357.000 C 267.593 370.246,257.179 375.583,243.800 370.015 C 238.408 367.770,235.504 366.384,231.400 364.094 C 227.755 362.060,219.282 356.628,218.800 356.016 C 218.690 355.876,217.970 355.325,217.200 354.792 C 216.430 354.258,215.440 353.490,215.000 353.084 C 214.560 352.678,213.438 351.774,212.508 351.073 C 211.577 350.373,208.375 347.321,205.392 344.292 L 199.969 338.784 195.485 343.449 C 188.309 350.915,180.352 357.223,171.499 362.465 C 156.896 371.112,146.587 374.240,141.505 371.566 C 141.123 371.364,140.619 371.200,140.383 371.200 C 139.410 371.200,135.146 367.865,134.011 366.216 C 130.841 361.608,130.242 357.819,130.533 344.200 C 130.786 332.359,131.047 329.963,133.131 320.300 C 134.122 315.709,134.046 315.736,127.578 322.299 M142.901 335.400 C 142.905 336.280,142.987 336.593,143.083 336.095 C 143.179 335.598,143.175 334.878,143.075 334.495 C 142.975 334.113,142.896 334.520,142.901 335.400 M142.893 356.400 C 142.893 357.170,142.975 357.485,143.076 357.100 C 143.176 356.715,143.176 356.085,143.076 355.700 C 142.975 355.315,142.893 355.630,142.893 356.400 M146.100 360.276 C 146.485 360.376,147.115 360.376,147.500 360.276 C 147.885 360.175,147.570 360.093,146.800 360.093 C 146.030 360.093,145.715 360.175,146.100 360.276 " stroke="none" fill="#7bcd7e" fill-rule="evenodd"/><path id="path2" d="M50.200 159.468 C 48.930 159.807,46.853 161.537,46.200 162.801 C 45.321 164.500,45.302 218.545,46.179 222.674 C 49.267 237.215,61.410 248.652,75.300 250.103 C 77.325 250.315,77.723 249.795,76.839 248.095 C 76.640 247.713,76.260 246.590,75.993 245.600 C 75.726 244.610,75.367 243.350,75.196 242.800 C 75.025 242.250,74.672 240.720,74.410 239.400 C 74.149 238.080,73.783 236.280,73.597 235.400 C 71.454 225.263,71.480 203.655,73.642 196.640 C 74.389 194.218,74.117 193.319,72.247 192.032 C 65.677 187.512,61.766 177.812,63.204 169.600 C 64.157 164.155,64.409 164.645,59.276 161.975 C 54.848 159.671,52.192 158.937,50.200 159.468 M345.313 159.809 C 343.757 160.374,339.771 162.373,337.071 163.943 C 336.111 164.502,335.978 164.780,336.184 165.800 C 337.383 171.749,337.374 176.883,336.159 180.400 C 334.568 185.007,331.195 189.664,327.718 192.056 C 325.693 193.449,325.779 192.782,326.803 199.200 C 327.709 204.875,328.457 215.222,328.221 218.800 C 327.578 228.531,326.756 234.609,325.220 241.000 C 325.009 241.880,324.724 243.140,324.588 243.800 C 324.451 244.460,324.198 245.360,324.025 245.800 C 323.471 247.211,322.800 249.444,322.800 249.879 C 322.800 250.748,328.636 249.663,332.743 248.030 C 343.544 243.735,351.376 234.408,353.804 222.948 C 354.684 218.792,354.681 164.504,353.800 162.801 C 352.319 159.937,348.585 158.620,345.313 159.809 M185.400 183.647 C 172.914 183.907,164.730 184.342,155.800 185.220 C 153.380 185.458,149.690 185.813,147.600 186.009 C 145.510 186.205,142.360 186.559,140.600 186.795 C 138.840 187.032,136.050 187.399,134.400 187.612 C 131.335 188.008,129.000 188.375,124.400 189.183 C 122.970 189.434,120.810 189.802,119.600 190.001 C 118.390 190.200,116.590 190.535,115.600 190.746 C 114.610 190.957,113.080 191.245,112.200 191.386 C 111.320 191.526,109.970 191.796,109.200 191.984 C 108.430 192.173,106.810 192.534,105.600 192.787 C 102.530 193.429,96.836 194.759,95.400 195.169 C 93.572 195.691,89.589 196.390,87.816 196.501 C 86.000 196.614,86.103 196.352,85.015 203.630 C 84.287 208.497,84.172 223.508,84.831 227.554 C 85.555 231.995,86.458 236.919,86.839 238.500 C 87.037 239.325,87.357 240.675,87.548 241.500 C 88.041 243.626,89.907 249.090,90.824 251.096 C 91.251 252.028,91.600 252.956,91.600 253.158 C 91.600 253.359,91.951 254.216,92.381 255.062 C 92.810 255.908,93.504 257.320,93.922 258.200 C 94.685 259.805,96.291 262.810,97.981 265.800 C 99.033 267.660,102.449 272.907,102.800 273.200 C 102.931 273.310,103.471 274.030,104.000 274.800 C 104.529 275.570,105.060 276.290,105.181 276.400 C 105.301 276.510,106.028 277.410,106.796 278.400 C 116.559 290.988,134.081 304.175,150.000 310.914 C 150.770 311.240,152.253 311.888,153.296 312.353 C 154.338 312.819,155.376 313.200,155.601 313.200 C 155.826 313.200,156.323 313.374,156.705 313.586 C 159.311 315.034,170.477 318.010,178.600 319.421 C 199.209 323.000,227.118 320.501,243.400 313.619 C 243.840 313.433,244.830 313.064,245.600 312.799 C 252.548 310.409,272.361 299.292,274.800 296.415 C 274.910 296.286,275.809 295.554,276.797 294.790 C 284.590 288.763,293.652 278.776,299.654 269.600 C 301.658 266.536,306.000 258.957,306.000 258.523 C 306.000 258.428,306.558 257.146,307.239 255.675 C 307.921 254.204,308.641 252.595,308.839 252.100 C 309.038 251.605,309.372 250.795,309.583 250.300 C 310.236 248.768,312.088 243.074,312.413 241.600 C 312.584 240.830,312.984 239.210,313.304 238.000 C 313.624 236.790,314.100 234.450,314.364 232.800 C 314.627 231.150,315.017 228.897,315.229 227.793 C 315.778 224.943,315.743 208.196,315.180 204.494 C 314.921 202.792,314.493 200.320,314.229 199.000 L 313.747 196.600 311.174 196.362 C 309.758 196.230,306.620 195.638,304.200 195.046 C 297.665 193.445,293.914 192.605,288.700 191.575 C 287.655 191.369,285.855 191.013,284.700 190.784 C 283.545 190.556,281.700 190.212,280.600 190.021 C 279.500 189.830,277.430 189.469,276.000 189.217 C 270.914 188.324,268.000 187.897,259.400 186.788 C 256.559 186.421,252.156 185.963,244.200 185.205 C 228.725 183.732,207.838 183.179,185.400 183.647 M142.577 201.581 C 145.500 203.508,147.072 215.579,145.035 220.455 C 143.206 224.833,138.256 225.877,134.960 222.581 L 133.141 220.763 133.271 212.681 C 133.413 203.759,133.577 203.134,136.183 201.545 C 137.831 200.540,141.025 200.558,142.577 201.581 M264.041 201.708 C 266.539 203.377,266.799 204.450,266.799 213.111 L 266.800 220.821 265.011 222.611 C 261.675 225.946,256.222 224.587,254.873 220.085 C 254.007 217.196,254.251 206.161,255.224 204.150 C 256.813 200.868,261.033 199.699,264.041 201.708 M186.478 212.518 C 187.071 212.783,188.359 213.759,189.341 214.687 C 195.643 220.645,204.101 220.609,210.838 214.598 C 216.947 209.147,225.256 214.454,221.152 221.186 C 213.017 234.530,186.113 234.201,178.514 220.665 C 175.920 216.045,181.530 210.306,186.478 212.518 M145.265 322.941 C 144.865 323.444,144.767 323.922,143.857 329.800 C 142.274 340.027,141.956 348.576,142.917 355.058 C 143.620 359.798,145.560 361.126,149.481 359.550 C 150.097 359.303,150.960 358.961,151.400 358.791 C 151.840 358.621,152.830 358.210,153.600 357.879 C 154.370 357.547,155.682 356.995,156.515 356.652 C 159.981 355.225,171.715 348.136,175.127 345.408 C 182.459 339.546,188.917 333.340,187.974 333.062 C 187.658 332.969,185.510 332.683,183.200 332.427 C 175.080 331.526,167.329 329.907,159.800 327.538 C 158.480 327.122,156.770 326.594,156.000 326.365 C 155.230 326.135,154.240 325.797,153.800 325.613 C 153.360 325.429,151.920 324.871,150.600 324.374 C 149.280 323.876,148.020 323.345,147.800 323.192 C 146.990 322.632,145.619 322.496,145.265 322.941 M250.600 323.868 C 248.620 324.641,246.640 325.425,246.200 325.610 C 245.172 326.044,241.118 327.349,238.800 327.993 C 237.810 328.268,236.550 328.637,236.000 328.812 C 231.712 330.183,216.983 332.800,213.558 332.800 C 212.727 332.800,211.952 332.954,211.836 333.141 C 211.539 333.623,219.064 340.821,223.200 344.012 C 224.190 344.775,225.090 345.494,225.200 345.609 C 227.652 348.173,242.478 356.533,248.600 358.804 C 249.040 358.967,249.903 359.303,250.519 359.550 C 252.449 360.326,254.952 360.117,255.895 359.100 C 258.158 356.658,258.092 338.817,255.776 326.854 C 254.866 322.155,254.916 322.183,250.600 323.868 " stroke="none" fill="#f2c6b9" fill-rule="evenodd"/><path id="path3" d="M250.800 12.063 C 249.590 12.259,247.430 12.601,246.000 12.822 C 243.382 13.227,240.523 13.738,237.200 14.394 C 233.568 15.111,224.983 17.312,224.400 17.675 C 223.596 18.176,224.506 17.991,231.400 16.256 C 237.640 14.685,246.383 13.096,252.903 12.348 C 258.224 11.739,259.506 12.162,260.875 14.980 L 261.745 16.770 260.798 19.685 C 260.277 21.288,259.735 22.780,259.592 23.000 C 259.449 23.220,258.930 24.750,258.439 26.400 C 257.948 28.050,257.389 29.850,257.199 30.400 C 256.798 31.554,255.454 37.714,254.710 41.800 C 252.611 53.327,255.044 73.549,259.822 84.300 C 260.140 85.015,260.687 86.275,261.038 87.100 C 264.262 94.682,271.175 106.102,277.326 114.009 C 277.587 114.344,278.610 115.694,279.599 117.009 C 280.588 118.324,281.493 119.490,281.609 119.600 C 281.726 119.710,282.446 120.609,283.210 121.599 C 283.975 122.588,284.897 123.758,285.260 124.199 C 286.114 125.236,293.880 134.812,294.515 135.610 C 298.552 140.687,302.237 145.909,301.959 146.158 C 301.711 146.379,298.576 145.856,291.200 144.361 C 290.210 144.161,288.320 143.817,287.000 143.597 C 285.680 143.378,283.520 143.012,282.200 142.784 C 275.774 141.675,266.017 140.329,259.000 139.583 C 245.714 138.171,231.945 137.209,232.414 137.726 C 232.532 137.856,235.682 138.158,239.414 138.397 C 253.956 139.328,266.152 140.700,281.600 143.142 C 284.965 143.674,287.207 144.085,296.977 145.960 C 303.679 147.246,303.562 147.289,301.533 144.300 C 299.864 141.841,293.314 133.191,292.825 132.800 C 292.195 132.296,280.949 118.077,277.640 113.600 C 275.607 110.850,273.686 108.283,273.372 107.895 C 273.057 107.508,272.800 107.108,272.800 107.006 C 272.800 106.904,271.445 104.791,269.789 102.311 C 267.262 98.525,261.931 88.509,260.735 85.300 C 260.551 84.805,260.220 83.950,260.000 83.400 C 259.780 82.850,259.438 81.995,259.240 81.500 C 258.729 80.221,258.170 78.482,257.600 76.400 C 257.329 75.410,256.967 74.150,256.796 73.600 C 256.625 73.050,256.295 71.610,256.061 70.400 C 255.828 69.190,255.406 67.030,255.125 65.600 C 254.801 63.957,254.613 59.689,254.613 54.000 C 254.613 48.311,254.801 44.043,255.125 42.400 C 255.406 40.970,255.822 38.810,256.048 37.600 C 256.715 34.037,258.401 27.541,259.215 25.400 C 259.382 24.960,259.736 23.970,260.000 23.200 C 260.501 21.741,260.796 20.956,261.550 19.081 C 263.710 13.709,259.118 10.711,250.800 12.063 M221.800 18.400 L 221.000 18.744 221.800 18.766 C 222.240 18.778,222.870 18.613,223.200 18.400 C 223.995 17.886,222.996 17.886,221.800 18.400 M215.600 20.363 C 198.957 26.395,183.064 34.814,170.200 44.411 C 166.392 47.253,164.004 47.392,161.069 44.943 C 160.447 44.424,159.727 44.005,159.469 44.012 C 159.211 44.019,159.360 44.228,159.800 44.478 C 160.240 44.727,160.690 45.059,160.800 45.215 C 161.380 46.038,163.984 47.197,165.256 47.199 C 166.521 47.200,173.435 43.294,174.400 42.034 C 174.619 41.747,178.920 38.870,180.200 38.154 C 180.640 37.907,183.160 36.393,185.800 34.790 C 190.223 32.103,200.553 26.816,204.809 25.062 C 205.794 24.655,207.363 23.980,208.296 23.562 C 209.228 23.143,210.176 22.800,210.401 22.800 C 210.626 22.800,211.123 22.634,211.505 22.432 C 212.401 21.957,216.017 20.620,218.700 19.772 C 220.738 19.128,221.325 18.778,220.300 18.821 C 220.025 18.832,217.910 19.526,215.600 20.363 M148.147 55.000 C 148.257 55.440,148.621 56.544,148.956 57.454 C 150.084 60.519,149.593 61.578,144.638 66.778 C 138.714 72.994,132.020 80.744,128.528 85.430 C 123.481 92.203,121.153 95.469,118.908 98.926 C 115.540 104.111,112.400 109.198,112.400 109.468 C 112.400 109.583,112.068 110.154,111.662 110.738 C 110.109 112.970,103.874 124.807,104.121 125.054 C 104.228 125.162,104.583 124.744,104.909 124.125 C 105.234 123.506,106.393 121.290,107.484 119.200 C 108.574 117.110,109.856 114.725,110.333 113.900 C 110.810 113.075,111.536 111.815,111.946 111.100 C 114.051 107.429,114.903 106.064,119.086 99.662 C 121.578 95.847,123.884 92.459,124.209 92.134 C 124.534 91.809,124.800 91.389,124.800 91.200 C 124.800 91.011,125.028 90.619,125.306 90.329 C 125.585 90.038,127.062 88.180,128.589 86.200 C 131.784 82.055,138.826 73.585,140.596 71.757 C 150.919 61.097,151.203 60.568,148.970 56.200 C 148.408 55.100,148.038 54.560,148.147 55.000 M102.782 127.461 C 101.883 129.458,100.965 131.519,99.426 135.000 C 98.940 136.100,98.312 137.630,98.030 138.400 C 97.301 140.397,96.966 141.262,96.480 142.400 C 94.411 147.244,94.627 147.684,98.668 146.848 C 101.047 146.356,101.492 146.170,100.518 146.076 C 99.814 146.008,98.880 146.143,98.445 146.376 C 97.534 146.863,95.600 146.947,95.600 146.498 C 95.600 145.569,100.385 133.691,102.696 128.883 C 103.468 127.278,103.999 125.866,103.877 125.744 C 103.755 125.622,103.262 126.395,102.782 127.461 M173.200 137.084 C 161.084 137.462,138.827 139.480,127.800 141.200 C 126.260 141.440,123.740 141.808,122.200 142.016 C 120.660 142.225,118.410 142.576,117.200 142.796 C 115.990 143.016,113.920 143.384,112.600 143.613 C 109.936 144.074,107.171 144.575,104.296 145.116 C 103.249 145.313,102.274 145.593,102.129 145.737 C 101.765 146.102,102.347 146.067,104.845 145.577 C 109.830 144.598,120.141 142.808,123.300 142.372 C 124.785 142.168,127.305 141.814,128.900 141.586 C 139.368 140.092,143.929 139.615,159.600 138.372 C 162.570 138.137,172.200 137.715,181.000 137.434 C 196.524 136.939,196.702 136.925,187.000 136.945 C 181.500 136.957,175.290 137.019,173.200 137.084 M203.233 136.952 C 203.325 137.036,209.610 137.195,217.200 137.306 C 224.976 137.419,229.079 137.375,226.600 137.205 C 222.038 136.891,202.940 136.684,203.233 136.952 M172.400 148.873 C 168.990 149.060,164.580 149.378,162.600 149.579 C 158.267 150.019,162.132 149.923,179.800 149.151 C 185.837 148.887,198.255 148.772,209.400 148.876 C 219.960 148.974,227.070 148.925,225.200 148.767 C 220.533 148.372,180.038 148.453,172.400 148.873 M233.000 149.613 C 237.151 150.039,242.179 150.014,239.400 149.582 C 238.300 149.410,235.780 149.283,233.800 149.298 L 230.200 149.326 233.000 149.613 M150.200 150.400 C 147.879 150.816,153.008 150.830,156.000 150.417 C 158.147 150.120,158.122 150.113,155.000 150.113 C 153.240 150.113,151.080 150.242,150.200 150.400 M245.000 150.418 C 246.100 150.590,248.170 150.722,249.600 150.712 L 252.200 150.693 250.200 150.382 C 249.100 150.210,247.030 150.078,245.600 150.088 L 243.000 150.107 245.000 150.418 M141.800 151.220 C 140.700 151.398,136.740 151.934,133.000 152.410 C 123.288 153.646,109.809 155.938,102.200 157.647 C 101.320 157.845,99.970 158.104,99.200 158.224 C 98.430 158.343,97.170 158.604,96.400 158.802 C 94.440 159.306,88.625 160.661,86.000 161.225 C 82.153 162.052,80.345 162.923,78.167 165.000 C 71.932 170.946,74.417 181.609,82.640 184.195 C 85.042 184.950,89.806 184.825,91.149 183.971 C 91.641 183.658,91.457 183.613,90.400 183.786 C 85.478 184.590,84.345 184.492,80.960 182.975 C 75.098 180.348,73.299 171.406,77.602 166.281 C 79.924 163.514,81.232 162.910,88.600 161.198 C 90.580 160.738,92.830 160.199,93.600 160.000 C 94.370 159.801,95.540 159.530,96.200 159.397 C 96.860 159.265,98.120 159.003,99.000 158.816 C 99.880 158.628,101.680 158.261,103.000 158.000 C 104.320 157.739,106.210 157.354,107.200 157.145 C 109.665 156.622,112.509 156.090,115.600 155.572 C 117.030 155.332,119.100 154.985,120.200 154.800 C 127.833 153.517,136.124 152.400,143.983 151.596 C 146.283 151.361,148.248 151.085,148.349 150.984 C 148.639 150.694,144.011 150.861,141.800 151.220 M253.800 151.223 C 254.680 151.405,256.300 151.542,257.400 151.527 L 259.400 151.500 257.600 151.180 C 256.610 151.003,254.990 150.867,254.000 150.876 L 252.200 150.892 253.800 151.223 M259.633 151.767 C 259.725 151.858,261.510 152.147,263.600 152.409 C 272.327 153.502,274.918 153.872,280.200 154.784 C 281.520 155.012,283.680 155.378,285.000 155.597 C 286.320 155.817,288.300 156.177,289.400 156.397 C 290.500 156.616,292.390 156.975,293.600 157.193 C 294.810 157.412,296.520 157.754,297.400 157.954 C 298.280 158.154,299.630 158.439,300.400 158.587 C 301.925 158.880,305.510 159.715,313.102 161.545 C 323.473 164.045,327.621 170.670,323.654 178.400 C 321.773 182.065,319.118 183.748,314.200 184.393 L 311.800 184.708 314.600 184.617 C 328.453 184.169,329.133 164.522,315.400 161.514 C 314.520 161.321,313.170 161.009,312.400 160.821 C 309.445 160.098,304.669 159.017,302.600 158.603 C 301.940 158.470,300.770 158.204,300.000 158.011 C 299.230 157.818,297.610 157.467,296.400 157.231 C 295.190 156.996,292.400 156.451,290.200 156.022 C 278.474 153.732,258.869 151.003,259.633 151.767 M49.800 158.923 C 47.301 159.835,45.297 162.491,44.998 165.285 C 44.512 169.841,45.017 221.613,45.565 223.400 C 45.835 224.280,46.238 225.630,46.461 226.400 C 48.000 231.718,52.810 239.250,56.444 242.033 C 57.138 242.565,58.145 243.376,58.680 243.836 C 63.382 247.873,78.000 252.874,78.000 250.446 C 78.000 250.020,76.865 246.169,76.360 244.881 C 76.162 244.376,76.000 243.531,76.000 243.005 C 76.000 242.478,75.844 241.951,75.653 241.833 C 75.462 241.715,75.193 240.849,75.054 239.909 C 74.915 238.969,74.614 237.210,74.385 236.000 C 74.155 234.790,73.808 232.478,73.613 230.862 C 73.241 227.786,72.800 226.603,72.800 228.682 C 72.800 231.264,74.734 240.835,76.461 246.800 C 76.683 247.570,76.965 248.719,77.086 249.353 L 77.306 250.507 75.353 250.239 C 72.603 249.861,69.469 249.113,69.020 248.727 C 68.811 248.547,68.404 248.400,68.116 248.400 C 67.339 248.400,64.040 246.817,62.128 245.528 C 61.208 244.907,60.278 244.400,60.061 244.400 C 59.844 244.400,59.607 244.265,59.533 244.100 C 59.460 243.935,58.476 243.036,57.347 242.102 C 52.887 238.413,49.300 233.009,47.059 226.601 L 45.800 223.000 45.685 193.491 C 45.559 160.900,45.465 162.205,48.067 160.353 C 50.675 158.495,53.160 158.817,59.105 161.780 C 64.926 164.682,64.691 164.377,63.595 167.600 C 63.011 169.319,62.795 173.696,63.172 176.200 C 64.283 183.594,66.986 187.885,73.682 192.890 C 74.304 193.355,74.316 193.646,73.823 196.200 C 73.138 199.742,72.619 204.678,72.964 204.353 C 73.109 204.217,73.400 202.777,73.612 201.153 C 73.824 199.529,74.176 197.120,74.394 195.800 L 74.790 193.400 73.495 192.276 C 72.783 191.658,71.696 190.758,71.079 190.276 C 65.206 185.685,62.110 175.360,64.200 167.335 C 64.530 166.069,64.800 164.825,64.800 164.572 C 64.800 164.319,62.505 162.988,59.700 161.616 C 56.895 160.244,54.287 158.958,53.905 158.760 C 53.016 158.299,51.327 158.366,49.800 158.923 M346.000 158.779 C 345.670 158.962,343.105 160.248,340.300 161.636 C 337.495 163.025,335.202 164.350,335.205 164.580 C 335.207 164.811,335.483 165.990,335.817 167.200 C 338.293 176.169,334.960 185.450,326.904 192.017 L 325.208 193.400 325.627 195.800 C 327.874 208.654,327.871 224.456,325.620 236.200 C 325.014 239.360,324.495 241.678,324.030 243.300 C 323.794 244.125,323.435 245.385,323.233 246.100 C 323.031 246.815,322.671 248.029,322.433 248.797 C 322.195 249.566,322.000 250.331,322.000 250.497 C 322.000 250.905,325.548 250.809,326.800 250.368 C 327.473 250.131,326.967 250.087,325.251 250.233 L 322.702 250.451 322.918 249.325 C 323.037 248.706,323.317 247.570,323.539 246.800 C 326.363 237.046,327.493 229.957,327.843 219.800 C 328.134 211.332,327.706 205.374,326.075 195.200 L 325.787 193.400 328.193 191.464 C 335.566 185.534,338.894 175.377,336.267 166.824 C 335.481 164.266,334.972 164.788,341.375 161.587 C 347.999 158.276,351.074 158.414,353.536 162.133 L 354.600 163.741 354.600 190.771 C 354.600 205.637,354.467 219.150,354.305 220.800 C 354.064 223.262,354.100 223.656,354.505 223.000 C 355.047 222.125,355.506 168.937,355.007 164.928 C 354.720 162.622,352.200 159.200,350.790 159.200 C 350.381 159.200,349.936 159.020,349.800 158.800 C 349.505 158.323,346.851 158.308,346.000 158.779 M175.200 171.597 C 162.430 172.176,147.026 173.492,137.600 174.809 C 135.950 175.039,133.340 175.403,131.800 175.616 C 130.260 175.830,127.920 176.182,126.600 176.400 C 125.280 176.617,123.120 176.971,121.800 177.186 C 118.109 177.789,115.196 178.316,113.000 178.779 C 111.900 179.010,110.100 179.373,109.000 179.584 C 105.290 180.295,100.391 181.343,97.600 182.021 C 96.830 182.208,95.315 182.550,94.233 182.781 C 93.151 183.012,92.176 183.291,92.066 183.400 C 91.642 183.825,93.376 183.560,97.438 182.582 C 106.976 180.284,123.134 177.291,133.000 175.995 C 134.540 175.793,137.150 175.437,138.800 175.204 C 144.238 174.437,156.031 173.291,163.800 172.774 C 178.040 171.827,210.264 171.726,234.600 172.552 L 239.800 172.728 233.200 172.188 C 225.294 171.541,185.405 171.134,175.200 171.597 M240.458 172.992 C 240.564 173.097,242.799 173.369,245.425 173.595 C 257.849 174.665,267.098 175.826,277.200 177.585 C 278.410 177.796,280.570 178.170,282.000 178.416 C 287.796 179.415,288.820 179.612,294.200 180.761 C 297.280 181.419,301.780 182.425,304.200 182.996 C 309.372 184.217,311.481 184.604,311.187 184.277 C 311.070 184.147,309.270 183.650,307.187 183.173 C 305.104 182.695,302.680 182.136,301.800 181.930 C 298.238 181.097,294.517 180.295,291.000 179.600 C 289.680 179.339,287.790 178.963,286.800 178.765 C 284.702 178.344,281.659 177.803,278.000 177.200 C 276.570 176.964,274.320 176.589,273.000 176.365 C 267.154 175.375,259.709 174.452,247.400 173.191 C 243.451 172.786,240.158 172.692,240.458 172.992 M177.800 183.220 C 175.160 183.362,180.290 183.406,189.200 183.318 C 198.110 183.230,211.160 183.363,218.200 183.614 C 225.240 183.865,232.980 184.128,235.400 184.200 L 239.800 184.329 236.200 183.991 C 224.779 182.917,191.583 182.479,177.800 183.220 M159.416 184.239 C 152.471 184.821,149.873 185.268,155.000 184.999 C 162.647 184.598,172.213 183.919,172.367 183.766 C 172.681 183.453,165.798 183.704,159.416 184.239 M240.033 184.557 C 240.125 184.644,242.630 184.925,245.600 185.183 C 251.366 185.684,255.459 186.121,260.600 186.785 C 268.623 187.821,269.508 187.955,278.800 189.545 C 283.255 190.307,283.977 190.446,287.400 191.196 C 288.280 191.389,290.170 191.763,291.600 192.027 C 293.030 192.291,295.183 192.753,296.384 193.054 C 299.066 193.724,300.094 193.778,299.200 193.200 C 298.870 192.987,298.026 192.809,297.324 192.806 C 296.622 192.803,295.950 192.643,295.832 192.452 C 295.714 192.260,294.758 191.995,293.708 191.862 C 292.659 191.729,290.900 191.428,289.800 191.192 C 286.621 190.510,284.365 190.061,282.000 189.637 C 280.790 189.421,278.720 189.043,277.400 188.798 C 276.080 188.554,273.920 188.200,272.600 188.013 C 269.947 187.638,262.191 186.521,260.000 186.199 C 254.075 185.329,239.589 184.138,240.033 184.557 M146.200 185.469 C 143.251 185.718,131.024 187.425,125.100 188.416 C 123.835 188.627,121.765 188.973,120.500 189.184 C 119.235 189.395,117.660 189.676,117.000 189.808 C 116.340 189.941,114.990 190.210,114.000 190.406 C 113.010 190.603,111.390 190.936,110.400 191.146 C 109.410 191.357,107.610 191.733,106.400 191.982 C 105.190 192.231,103.480 192.597,102.600 192.796 C 101.720 192.994,100.228 193.323,99.284 193.527 C 98.340 193.731,97.455 194.011,97.317 194.149 C 96.937 194.530,97.501 194.449,101.200 193.592 C 104.284 192.877,108.599 191.968,111.200 191.485 C 111.750 191.382,113.550 191.020,115.200 190.679 C 116.850 190.338,119.550 189.851,121.200 189.596 C 122.850 189.341,125.010 188.979,126.000 188.790 C 128.940 188.231,132.768 187.655,136.600 187.196 C 138.580 186.958,141.069 186.592,142.131 186.382 C 143.192 186.172,144.992 185.987,146.131 185.970 C 147.269 185.954,149.010 185.797,150.000 185.620 L 151.800 185.300 149.800 185.317 C 148.700 185.327,147.080 185.395,146.200 185.469 M304.400 194.805 C 306.930 195.455,309.255 195.989,309.567 195.993 C 310.658 196.006,309.592 195.471,307.904 195.159 C 306.967 194.986,305.390 194.641,304.400 194.393 C 303.410 194.145,301.970 193.871,301.200 193.783 C 300.430 193.696,301.870 194.156,304.400 194.805 M94.000 194.800 C 93.670 195.013,92.860 195.193,92.200 195.200 C 91.540 195.207,90.730 195.387,90.400 195.600 C 89.464 196.205,90.930 196.056,94.200 195.213 C 96.129 194.716,96.627 194.479,95.800 194.452 C 95.140 194.430,94.330 194.587,94.000 194.800 M85.614 196.774 C 85.386 197.199,85.222 198.054,85.248 198.674 C 85.288 199.612,85.364 199.520,85.701 198.120 C 86.085 196.524,86.186 196.433,87.753 196.290 L 89.400 196.140 87.714 196.070 C 86.412 196.016,85.934 196.176,85.614 196.774 M312.250 196.290 L 313.899 196.441 314.330 198.721 C 315.393 204.340,315.599 206.185,315.833 212.200 C 316.376 226.153,313.947 240.348,309.031 251.943 C 308.439 253.342,308.049 254.582,308.165 254.699 C 308.282 254.815,308.544 254.481,308.748 253.955 C 308.952 253.430,309.515 252.010,310.000 250.800 C 311.676 246.620,313.594 240.233,314.384 236.200 C 316.020 227.845,316.182 226.056,316.191 216.200 C 316.205 200.884,315.247 195.947,312.286 196.070 L 310.600 196.140 312.250 196.290 M84.787 200.433 C 84.780 200.745,84.516 202.890,84.200 205.200 C 82.805 215.398,83.844 229.821,86.766 240.800 C 88.215 246.249,90.856 253.683,91.660 254.580 C 91.847 254.789,92.000 255.284,92.000 255.680 C 92.000 256.076,92.180 256.400,92.400 256.400 C 92.620 256.400,92.800 256.652,92.800 256.959 C 92.800 257.594,95.036 261.991,95.669 262.600 C 95.898 262.820,95.548 261.920,94.893 260.600 C 91.730 254.233,88.499 245.998,87.594 242.000 C 87.420 241.230,87.014 239.610,86.692 238.400 C 86.076 236.080,85.572 233.465,84.728 228.200 C 84.040 223.904,84.077 208.487,84.787 203.898 C 85.085 201.972,85.210 200.277,85.065 200.131 C 84.919 199.986,84.794 200.122,84.787 200.433 M136.555 201.562 C 133.748 203.274,133.600 203.834,133.600 212.731 L 133.600 220.739 134.648 221.984 C 137.600 225.492,142.383 225.113,144.459 221.206 C 145.607 219.046,145.564 205.601,144.402 203.696 C 142.744 200.976,139.128 199.993,136.555 201.562 M257.800 201.559 C 255.066 203.156,254.800 204.107,254.800 212.279 C 254.800 218.095,254.928 219.887,255.410 220.820 C 256.276 222.493,256.404 222.282,255.722 220.304 C 254.901 217.922,255.117 205.030,256.000 203.689 C 258.230 200.303,263.646 200.652,265.575 204.304 C 266.009 205.127,266.373 205.499,266.382 205.131 C 266.461 202.149,260.814 199.799,257.800 201.559 M142.593 202.295 C 144.450 203.662,144.600 204.432,144.600 212.600 C 144.600 221.207,144.462 221.768,142.005 223.149 C 139.397 224.615,136.343 223.897,134.840 221.464 C 133.585 219.434,133.562 205.724,134.809 203.677 C 136.293 201.244,140.219 200.546,142.593 202.295 M72.260 208.461 C 71.935 213.034,72.000 221.364,72.386 224.800 C 72.572 226.453,72.700 223.284,72.739 216.100 C 72.803 204.221,72.689 202.409,72.260 208.461 M266.489 212.681 C 266.380 220.588,265.849 222.159,262.851 223.429 C 261.022 224.203,259.887 224.147,258.200 223.200 C 256.216 222.086,255.921 222.200,257.686 223.400 C 263.282 227.202,266.887 222.943,266.700 212.753 L 266.579 206.200 266.489 212.681 M182.248 212.405 C 180.872 212.827,179.336 214.192,178.562 215.680 C 174.674 223.152,193.446 233.876,205.000 230.784 C 205.715 230.593,204.663 230.543,202.400 230.659 C 189.906 231.305,176.552 223.211,178.813 216.362 C 180.230 212.068,184.781 211.445,188.764 214.999 C 191.175 217.150,193.855 218.810,194.884 218.790 C 195.168 218.784,194.500 218.321,193.400 217.761 C 192.300 217.200,190.770 216.166,190.000 215.462 C 187.138 212.846,186.564 212.480,185.000 212.268 C 184.120 212.149,182.881 212.210,182.248 212.405 M214.200 212.424 C 213.540 212.627,212.010 213.701,210.800 214.811 C 207.179 218.132,205.009 218.965,199.928 218.984 C 197.389 218.993,195.901 219.137,196.260 219.338 C 199.244 221.007,206.996 218.783,211.168 215.060 C 216.330 210.454,223.188 213.576,221.192 219.623 C 220.117 222.883,211.028 229.600,207.694 229.600 C 207.228 229.600,206.720 229.806,206.564 230.058 C 205.160 232.331,215.249 227.011,219.135 223.430 C 224.533 218.456,220.904 210.362,214.200 212.424 M353.077 226.230 C 349.648 237.384,339.789 246.878,329.000 249.416 C 328.340 249.572,328.024 249.781,328.298 249.882 C 329.857 250.456,338.958 246.118,341.853 243.422 C 342.102 243.190,343.030 242.412,343.915 241.694 C 348.047 238.340,354.472 227.312,353.924 224.513 C 353.856 224.163,353.474 224.936,353.077 226.230 M305.871 259.116 C 304.829 261.252,304.267 262.640,304.622 262.200 C 305.448 261.174,308.152 255.619,307.932 255.398 C 307.840 255.307,306.913 256.979,305.871 259.116 M96.000 263.388 C 96.000 264.005,102.852 274.631,104.271 276.214 C 104.672 276.662,105.625 277.832,106.388 278.814 C 109.272 282.523,115.399 288.850,119.555 292.411 C 120.960 293.615,122.310 294.783,122.555 295.007 C 124.380 296.674,132.091 302.047,136.414 304.664 C 139.342 306.436,150.289 312.000,150.848 312.000 C 151.046 312.000,152.062 312.378,153.104 312.840 C 156.206 314.214,156.450 314.307,160.200 315.552 C 165.134 317.189,171.591 318.862,172.363 318.704 C 172.713 318.632,171.650 318.254,170.000 317.863 C 168.350 317.473,166.550 317.005,166.000 316.823 C 165.450 316.641,164.190 316.271,163.200 316.001 C 162.210 315.730,161.040 315.358,160.600 315.175 C 160.160 314.991,158.990 314.578,158.000 314.256 C 153.149 312.683,144.842 308.960,140.000 306.190 C 138.570 305.372,136.784 304.350,136.031 303.919 C 121.584 295.656,106.067 280.054,97.422 265.100 C 96.428 263.379,96.000 262.864,96.000 263.388 M302.348 265.471 C 289.481 287.493,265.981 306.491,242.000 314.257 C 241.010 314.578,239.840 314.993,239.400 315.180 C 238.233 315.675,233.455 317.036,230.000 317.859 C 228.350 318.252,227.287 318.632,227.637 318.704 C 228.839 318.950,241.830 315.148,246.000 313.329 C 246.770 312.993,247.760 312.576,248.200 312.401 C 258.316 308.389,270.728 300.787,279.800 293.048 C 282.385 290.842,289.564 283.761,291.203 281.800 C 296.404 275.577,300.486 269.899,302.956 265.452 C 304.495 262.681,303.969 262.698,302.348 265.471 M127.867 321.300 C 123.144 326.014,119.952 329.753,115.900 335.323 C 114.855 336.759,114.000 338.101,114.000 338.305 C 114.000 338.509,113.640 339.002,113.200 339.400 C 112.760 339.798,112.400 340.293,112.400 340.500 C 112.400 340.707,112.062 341.354,111.649 341.938 C 110.679 343.309,106.807 350.983,105.244 354.630 C 104.239 356.977,102.470 362.212,100.377 369.028 C 99.856 370.725,99.903 376.122,100.451 377.481 C 102.734 383.151,105.956 386.306,111.160 387.966 C 112.117 388.272,135.330 388.400,189.676 388.400 C 265.067 388.400,266.866 388.418,268.343 389.171 C 270.179 390.107,270.547 390.544,271.231 392.600 C 271.933 394.710,272.421 395.265,272.023 393.502 C 271.517 391.258,270.335 389.640,268.582 388.792 C 266.971 388.011,265.850 388.000,190.174 387.995 C 105.990 387.990,111.159 388.140,107.170 385.581 C 100.392 381.231,98.717 372.397,102.813 362.600 C 102.997 362.160,103.543 360.630,104.027 359.200 C 108.202 346.862,117.082 332.950,127.578 322.299 C 134.046 315.736,134.122 315.709,133.130 320.300 C 131.841 326.266,131.595 327.715,131.414 330.400 L 131.240 333.000 131.648 330.600 C 131.872 329.280,132.505 326.040,133.053 323.400 C 133.601 320.760,134.149 318.105,134.270 317.500 C 134.739 315.161,132.963 316.215,127.867 321.300 M265.600 317.181 C 265.600 317.611,265.769 318.376,265.975 318.881 C 266.181 319.387,266.474 320.520,266.626 321.400 C 266.778 322.280,266.988 322.764,267.093 322.476 C 267.258 322.021,266.835 319.779,266.155 317.500 C 265.447 315.127,273.865 322.868,279.064 329.370 C 280.484 331.146,281.862 332.870,282.125 333.200 C 282.388 333.530,283.669 335.374,284.972 337.297 C 286.274 339.220,287.414 340.720,287.504 340.629 C 288.194 339.939,278.697 327.876,272.602 321.700 C 267.374 316.403,265.600 315.259,265.600 317.181 M173.800 319.200 C 174.240 319.389,175.230 319.538,176.000 319.532 C 177.273 319.521,177.309 319.491,176.400 319.200 C 174.948 318.735,172.718 318.735,173.800 319.200 M223.600 319.200 C 222.691 319.491,222.727 319.521,224.000 319.532 C 224.770 319.538,225.760 319.389,226.200 319.200 C 227.282 318.735,225.052 318.735,223.600 319.200 M178.200 320.000 C 178.640 320.189,179.630 320.335,180.400 320.325 L 181.800 320.305 180.600 320.000 C 178.803 319.543,177.136 319.543,178.200 320.000 M219.400 320.000 L 218.200 320.305 219.600 320.325 C 220.370 320.335,221.360 320.189,221.800 320.000 C 222.864 319.543,221.197 319.543,219.400 320.000 M183.400 320.778 C 184.597 321.105,189.883 321.336,189.567 321.048 C 189.475 320.965,187.780 320.796,185.800 320.673 C 183.638 320.539,182.679 320.581,183.400 320.778 M212.600 320.800 L 210.600 321.074 213.000 321.090 C 214.320 321.098,215.940 320.968,216.600 320.800 C 218.210 320.390,215.588 320.390,212.600 320.800 M192.200 321.633 C 194.275 322.049,205.725 322.049,207.800 321.633 C 208.784 321.436,205.779 321.313,200.000 321.313 C 194.221 321.313,191.216 321.436,192.200 321.633 M144.900 321.865 C 144.625 321.976,144.414 322.547,144.432 323.133 C 144.450 323.755,144.556 323.950,144.685 323.600 C 145.124 322.416,145.651 322.027,146.334 322.385 C 149.147 323.861,152.616 325.072,152.226 324.443 C 152.076 324.199,151.691 324.000,151.371 324.000 C 151.051 324.000,150.477 323.841,150.095 323.647 C 149.713 323.452,148.860 323.071,148.200 322.800 C 147.540 322.529,146.687 322.148,146.305 321.953 C 145.923 321.759,145.563 321.614,145.505 321.632 C 145.447 321.649,145.175 321.754,144.900 321.865 M252.400 322.460 C 250.297 323.418,249.288 323.834,248.243 324.173 C 247.826 324.308,247.579 324.513,247.694 324.627 C 247.907 324.840,253.065 322.929,253.813 322.360 C 254.307 321.985,254.992 322.370,255.308 323.200 C 255.466 323.615,255.547 323.535,255.568 322.943 C 255.593 322.284,254.788 321.466,254.267 321.620 C 254.230 321.631,253.390 322.009,252.400 322.460 M267.268 324.200 C 267.262 324.860,267.411 325.760,267.600 326.200 C 268.070 327.294,268.070 325.467,267.600 324.000 C 267.288 323.025,267.279 323.030,267.268 324.200 M255.646 324.800 C 255.665 325.130,255.824 325.850,256.000 326.400 L 256.320 327.400 256.354 326.400 C 256.373 325.850,256.213 325.130,256.000 324.800 C 255.655 324.267,255.616 324.267,255.646 324.800 M143.867 325.067 C 143.720 325.213,143.618 325.978,143.640 326.767 L 143.680 328.200 144.046 326.640 C 144.415 325.068,144.359 324.575,143.867 325.067 M155.000 325.772 C 158.158 326.977,159.741 327.352,159.410 326.816 C 159.268 326.587,158.848 326.397,158.476 326.394 C 157.676 326.387,154.934 325.467,154.541 325.074 C 154.390 324.923,153.892 324.813,153.433 324.828 C 152.975 324.843,153.680 325.268,155.000 325.772 M245.400 325.200 C 245.108 325.673,245.499 325.673,246.600 325.200 C 247.371 324.869,247.369 324.855,246.524 324.828 C 246.042 324.813,245.536 324.980,245.400 325.200 M160.600 327.600 C 161.796 328.114,162.795 328.114,162.000 327.600 C 161.670 327.387,161.040 327.222,160.600 327.234 L 159.800 327.256 160.600 327.600 M238.000 327.600 C 237.205 328.114,238.204 328.114,239.400 327.600 L 240.200 327.256 239.400 327.234 C 238.960 327.222,238.330 327.387,238.000 327.600 M268.095 328.600 C 268.095 329.480,268.232 330.740,268.400 331.400 C 268.690 332.538,268.705 332.517,268.705 331.000 C 268.705 330.120,268.568 328.860,268.400 328.200 C 268.110 327.062,268.095 327.083,268.095 328.600 M163.400 328.400 C 164.511 328.878,165.295 328.878,165.000 328.400 C 164.864 328.180,164.268 328.013,163.676 328.028 C 162.715 328.053,162.686 328.093,163.400 328.400 M235.200 328.400 C 234.405 328.914,235.404 328.914,236.600 328.400 L 237.400 328.056 236.600 328.034 C 236.160 328.022,235.530 328.187,235.200 328.400 M166.400 329.200 C 166.950 329.376,167.760 329.526,168.200 329.532 L 169.000 329.544 168.200 329.200 C 167.760 329.011,166.950 328.862,166.400 328.868 L 165.400 328.880 166.400 329.200 M231.800 329.200 L 231.000 329.544 231.800 329.532 C 232.240 329.526,233.050 329.376,233.600 329.200 L 234.600 328.880 233.600 328.868 C 233.050 328.862,232.240 329.011,231.800 329.200 M256.635 330.600 C 256.782 331.700,256.969 332.675,257.051 332.767 C 257.410 333.168,257.146 329.739,256.777 329.200 C 256.486 328.774,256.445 329.180,256.635 330.600 M143.049 329.815 C 142.912 330.173,142.822 331.306,142.849 332.333 L 142.898 334.200 143.243 331.828 C 143.591 329.441,143.512 328.611,143.049 329.815 M170.200 330.000 C 171.396 330.514,172.395 330.514,171.600 330.000 C 171.270 329.787,170.640 329.622,170.200 329.634 L 169.400 329.656 170.200 330.000 M228.400 330.000 C 227.636 330.494,228.458 330.494,230.000 330.000 L 231.000 329.680 230.000 329.646 C 229.450 329.627,228.730 329.787,228.400 330.000 M174.000 330.800 C 174.550 330.976,175.360 331.126,175.800 331.132 L 176.600 331.144 175.800 330.800 C 175.360 330.611,174.550 330.462,174.000 330.468 L 173.000 330.480 174.000 330.800 M224.200 330.800 L 223.400 331.144 224.200 331.132 C 224.640 331.126,225.450 330.976,226.000 330.800 L 227.000 330.480 226.000 330.468 C 225.450 330.462,224.640 330.611,224.200 330.800 M178.600 331.600 C 179.260 331.768,180.430 331.905,181.200 331.905 L 182.600 331.905 181.400 331.600 C 180.740 331.432,179.570 331.295,178.800 331.295 L 177.400 331.295 178.600 331.600 M218.800 331.600 C 217.401 332.048,219.639 332.048,221.400 331.600 L 222.600 331.295 221.200 331.287 C 220.430 331.283,219.350 331.424,218.800 331.600 M185.400 332.464 C 186.720 332.665,188.057 332.920,188.371 333.030 C 189.097 333.283,186.525 335.960,180.800 340.907 C 175.329 345.635,175.365 345.601,175.814 345.596 C 176.026 345.593,176.920 344.910,177.800 344.076 C 178.680 343.243,179.850 342.253,180.400 341.877 C 181.682 341.000,189.200 333.533,189.200 333.137 C 189.200 332.668,186.369 332.000,184.600 332.051 C 183.208 332.091,183.313 332.144,185.400 332.464 M212.100 332.448 C 211.385 332.654,210.800 332.968,210.800 333.146 C 210.800 333.461,218.677 341.201,220.223 342.406 C 220.650 342.739,221.810 343.639,222.800 344.406 C 223.790 345.172,224.690 345.901,224.800 346.025 C 225.085 346.346,231.112 350.456,232.900 351.549 C 235.505 353.141,234.524 352.199,231.500 350.205 C 228.642 348.320,223.190 344.431,222.800 343.998 C 222.690 343.876,220.980 342.411,219.000 340.742 C 215.270 337.598,211.600 333.897,211.600 333.280 C 211.600 333.085,212.815 332.745,214.300 332.523 C 216.691 332.167,216.794 332.118,215.200 332.096 C 214.210 332.083,212.815 332.241,212.100 332.448 M130.657 335.100 C 130.338 337.029,130.414 355.826,130.747 357.377 C 130.886 358.025,131.000 352.940,131.000 346.077 C 131.000 339.215,130.979 333.600,130.952 333.600 C 130.926 333.600,130.793 334.275,130.657 335.100 M257.485 338.200 C 257.608 340.620,257.775 342.675,257.855 342.767 C 258.152 343.107,257.908 335.763,257.590 334.800 C 257.402 334.228,257.357 335.685,257.485 338.200 M269.000 346.223 C 269.000 353.030,269.122 357.790,269.270 356.800 C 269.609 354.545,269.594 336.615,269.253 335.023 C 269.114 334.375,269.000 339.415,269.000 346.223 M142.250 335.650 C 141.924 337.280,142.002 355.123,142.340 356.322 C 142.483 356.830,142.600 352.105,142.600 345.822 C 142.600 339.540,142.578 334.400,142.550 334.400 C 142.523 334.400,142.388 334.963,142.250 335.650 M199.200 338.711 C 199.200 339.187,191.354 347.116,188.200 349.828 C 183.257 354.078,174.184 360.800,173.391 360.800 C 173.244 360.800,172.627 361.154,172.020 361.586 C 165.853 365.977,151.286 371.982,146.773 371.994 C 139.753 372.013,134.014 367.656,131.791 360.622 C 131.460 359.571,131.265 359.305,131.240 359.867 C 131.088 363.185,137.555 371.200,140.383 371.200 C 140.619 371.200,141.123 371.364,141.505 371.566 C 150.266 376.176,177.824 361.822,195.485 343.449 L 199.969 338.784 205.392 344.292 C 208.375 347.321,211.577 350.373,212.508 351.073 C 213.438 351.774,214.560 352.678,215.000 353.084 C 215.440 353.490,216.430 354.258,217.200 354.792 C 217.970 355.325,218.690 355.876,218.800 356.016 C 219.844 357.342,233.110 365.295,237.800 367.406 C 247.105 371.595,249.058 372.184,253.600 372.172 C 260.867 372.153,268.944 365.643,268.771 359.943 C 268.754 359.377,268.420 359.956,267.936 361.388 C 265.489 368.631,258.110 373.022,250.691 371.651 C 244.702 370.544,230.343 363.684,222.613 358.237 C 214.505 352.524,205.251 344.320,201.703 339.700 C 200.812 338.539,199.200 337.902,199.200 338.711 M289.037 343.800 C 292.358 349.936,294.758 355.217,296.400 360.000 C 296.664 360.770,297.022 361.760,297.195 362.200 C 297.367 362.640,297.734 363.810,298.008 364.800 C 298.283 365.790,298.659 367.140,298.843 367.800 C 299.027 368.460,299.344 369.720,299.547 370.600 C 299.834 371.840,299.927 371.963,299.959 371.145 C 299.997 370.172,298.704 365.220,297.414 361.400 C 295.479 355.667,290.053 344.051,288.352 342.000 C 287.896 341.450,288.204 342.260,289.037 343.800 M170.303 348.949 C 167.719 350.703,165.673 352.207,165.757 352.290 C 165.924 352.458,169.599 350.117,172.400 348.058 C 173.390 347.330,174.469 346.583,174.797 346.397 C 175.125 346.212,175.305 345.992,175.197 345.909 C 175.089 345.826,172.886 347.194,170.303 348.949 M257.678 351.400 C 257.631 352.500,257.500 354.390,257.386 355.600 C 257.219 357.379,257.261 357.614,257.605 356.825 C 257.839 356.288,257.970 354.398,257.896 352.625 C 257.813 350.620,257.731 350.156,257.678 351.400 M164.180 352.761 C 163.971 352.960,162.090 354.037,160.000 355.156 C 157.910 356.274,156.344 357.191,156.519 357.194 C 157.174 357.206,165.200 352.926,165.200 352.566 C 165.200 352.270,164.570 352.391,164.180 352.761 M235.020 352.763 C 235.810 353.517,243.251 357.282,243.487 357.046 C 243.622 356.911,243.568 356.800,243.367 356.800 C 243.165 356.800,241.208 355.810,239.018 354.600 C 235.080 352.424,234.281 352.057,235.020 352.763 M153.800 358.022 C 152.920 358.438,152.403 358.784,152.651 358.790 C 153.232 358.803,156.000 357.650,156.000 357.395 C 156.000 357.077,155.491 357.222,153.800 358.022 M142.801 358.030 C 142.799 359.080,144.590 360.421,146.243 360.607 L 147.800 360.782 146.077 360.363 C 144.811 360.055,144.148 359.606,143.579 358.672 C 143.142 357.957,142.802 357.676,142.801 358.030 M255.926 359.288 C 255.335 359.899,254.988 360.400,255.156 360.400 C 255.535 360.400,257.399 358.445,257.168 358.289 C 257.076 358.226,256.516 358.676,255.926 359.288 M148.600 360.000 C 147.829 360.331,147.831 360.345,148.676 360.372 C 149.158 360.387,149.664 360.220,149.800 360.000 C 150.092 359.527,149.701 359.527,148.600 360.000 M250.200 360.000 C 250.336 360.220,250.842 360.387,251.324 360.372 C 252.169 360.345,252.171 360.331,251.400 360.000 C 250.299 359.527,249.908 359.527,250.200 360.000 M299.458 375.783 C 298.775 379.868,295.908 383.751,291.166 387.016 C 290.195 387.684,289.167 388.716,288.882 389.308 C 288.312 390.493,287.905 395.196,288.448 394.330 C 288.630 394.039,288.756 393.166,288.728 392.391 C 288.640 389.996,289.801 388.224,292.691 386.341 C 296.925 383.582,300.255 378.368,299.915 375.031 C 299.809 373.994,299.737 374.112,299.458 375.783 " stroke="none" fill="#595056" fill-rule="evenodd"/><path id="path4" d="M180.800 149.085 C 158.269 149.893,138.037 151.801,120.200 154.800 C 119.100 154.985,117.030 155.332,115.600 155.572 C 112.509 156.090,109.665 156.622,107.200 157.145 C 106.210 157.354,104.320 157.739,103.000 158.000 C 101.680 158.261,99.880 158.628,99.000 158.816 C 98.120 159.003,96.860 159.265,96.200 159.397 C 95.540 159.530,94.370 159.801,93.600 160.000 C 92.830 160.199,90.580 160.738,88.600 161.198 C 81.232 162.910,79.924 163.514,77.602 166.281 C 73.299 171.406,75.098 180.348,80.960 182.975 C 84.974 184.774,86.321 184.755,94.400 182.779 C 99.350 181.568,104.287 180.488,109.000 179.584 C 110.100 179.373,111.900 179.010,113.000 178.779 C 115.196 178.316,118.109 177.789,121.800 177.186 C 123.120 176.971,125.280 176.617,126.600 176.400 C 127.920 176.182,130.260 175.830,131.800 175.616 C 133.340 175.403,135.950 175.039,137.600 174.809 C 143.212 174.024,153.925 172.951,161.600 172.403 C 187.897 170.527,230.344 171.093,251.800 173.605 C 253.780 173.837,257.020 174.209,259.000 174.432 C 260.980 174.654,263.230 174.929,264.000 175.043 C 264.770 175.156,266.570 175.409,268.000 175.604 C 269.430 175.799,271.725 176.148,273.100 176.379 C 274.475 176.611,276.725 176.986,278.100 177.214 C 281.746 177.818,284.755 178.354,286.800 178.765 C 287.790 178.963,289.680 179.339,291.000 179.600 C 296.259 180.639,300.953 181.690,307.200 183.226 C 318.137 185.917,324.765 182.184,324.791 173.319 C 324.811 166.715,321.747 163.629,313.102 161.545 C 305.510 159.715,301.925 158.880,300.400 158.587 C 299.630 158.439,298.280 158.154,297.400 157.954 C 296.520 157.754,294.810 157.412,293.600 157.193 C 292.390 156.975,290.500 156.616,289.400 156.397 C 288.300 156.177,286.320 155.817,285.000 155.597 C 283.680 155.378,281.520 155.012,280.200 154.784 C 276.721 154.183,272.999 153.615,269.800 153.197 C 268.260 152.995,265.560 152.636,263.800 152.399 C 242.581 149.539,207.352 148.132,180.800 149.085 M194.707 183.490 C 195.426 183.579,196.506 183.577,197.107 183.486 C 197.708 183.395,197.120 183.322,195.800 183.324 C 194.480 183.326,193.988 183.401,194.707 183.490 M203.107 183.490 C 203.826 183.579,204.906 183.577,205.507 183.486 C 206.108 183.395,205.520 183.322,204.200 183.324 C 202.880 183.326,202.388 183.401,203.107 183.490 M254.565 212.400 C 254.565 216.250,254.625 217.825,254.698 215.900 C 254.771 213.975,254.771 210.825,254.698 208.900 C 254.625 206.975,254.565 208.550,254.565 212.400 M84.140 216.400 C 84.140 218.270,84.209 219.035,84.293 218.100 C 84.377 217.165,84.377 215.635,84.293 214.700 C 84.209 213.765,84.140 214.530,84.140 216.400 M315.728 218.000 C 315.728 219.430,315.801 220.015,315.889 219.300 C 315.978 218.585,315.978 217.415,315.889 216.700 C 315.801 215.985,315.728 216.570,315.728 218.000 M133.200 219.776 C 133.200 220.313,133.347 220.844,133.528 220.955 C 133.708 221.067,133.777 220.627,133.682 219.979 C 133.472 218.549,133.200 218.435,133.200 219.776 M188.146 333.079 C 188.299 333.232,187.024 334.807,185.312 336.579 L 182.200 339.800 185.480 336.629 C 188.324 333.880,189.066 332.800,188.110 332.800 C 187.976 332.800,187.992 332.925,188.146 333.079 M256.909 334.400 C 256.909 335.390,256.987 335.795,257.082 335.300 C 257.178 334.805,257.178 333.995,257.082 333.500 C 256.987 333.005,256.909 333.410,256.909 334.400 M214.600 336.800 C 216.128 338.340,217.469 339.600,217.579 339.600 C 217.689 339.600,216.528 338.340,215.000 336.800 C 213.472 335.260,212.131 334.000,212.021 334.000 C 211.911 334.000,213.072 335.260,214.600 336.800 M257.740 346.000 C 257.740 347.870,257.809 348.635,257.893 347.700 C 257.977 346.765,257.977 345.235,257.893 344.300 C 257.809 343.365,257.740 344.130,257.740 346.000 M252.705 360.283 C 253.202 360.379,253.922 360.375,254.305 360.275 C 254.687 360.175,254.280 360.096,253.400 360.101 C 252.520 360.105,252.207 360.187,252.705 360.283 " stroke="none" fill="#948cd2" fill-rule="evenodd"/></g></svg>